<svg xmlns="http://www.w3.org/2000/svg" xmlns:xlink="http://www.w3.org/1999/xlink" version="1.1" x="0px" y="0px" viewBox="0 0 100 125" enable-background="new 0 0 100 100" xml:space="preserve"><g><path d="M92.384,44.588c-1.608-15.277-11.351-27.813-24.657-33.512c-0.925-0.409-1.87-0.779-2.84-1.098   c-4.194-1.437-8.688-2.216-13.354-2.216c-1.443,0-2.908,0.077-4.352,0.229c-22.552,2.373-38.969,22.65-36.596,45.201   c2.208,20.994,19.771,36.826,40.851,36.826c1.443,0,2.907-0.077,4.352-0.229C78.339,87.416,94.757,67.139,92.384,44.588z    M36.397,85.019c1.656-0.458,2.646-1.188,2.705-1.232c0.219-0.168,0.26-0.481,0.092-0.7c-0.167-0.218-0.48-0.259-0.7-0.094   c-0.017,0.013-1.413,1.054-3.677,1.327C22.782,78.67,14.054,67.049,12.573,52.982C10.316,31.528,25.935,12.237,47.39,9.98   c0.833-0.087,1.672-0.14,2.511-0.175c-6.353,3.019-12.312,10.833-16.119,20.442l-14.259,22.04c0.12-0.01,0.241-0.016,0.365-0.005   c0.252,0.022,0.487,0.095,0.705,0.195l4.836-7.475c0.307-1.462,1.146-2.704,2.291-3.543l4.62-7.143   c-0.384,1.211-0.731,2.441-1.042,3.687l-1.631,2.521c0.354-0.095,0.721-0.15,1.095-0.18c-0.551,2.649-0.934,5.347-1.105,8.048   c-0.087,1.355-0.118,2.71-0.104,4.061l-4.972,7.683c0.535-0.061,1.037-0.227,1.496-0.471l3.521-5.442   c0.027,0.635,0.065,1.268,0.114,1.898l-2.875,4.444c0.115,0.398,0.268,0.777,0.451,1.145l2.571-3.975   c0.062,0.583,0.137,1.164,0.218,1.742l-2.127,3.287c0.209,0.277,0.432,0.543,0.68,0.785l1.68-2.597   c0.092,0.542,0.193,1.079,0.301,1.614l-1.105,1.709c0.271,0.191,0.566,0.352,0.865,0.504l0.539-0.833   c1.022,4.427,2.602,8.564,4.692,12.148c-2.2-1.017-7.962-4.117-10.567-9.708c-0.117-0.251-0.414-0.361-0.664-0.242   c-0.25,0.116-0.359,0.414-0.242,0.664c3.416,7.33,11.658,10.475,12.007,10.605c0.058,0.021,0.116,0.031,0.175,0.031   c0.037,0,0.067-0.023,0.103-0.031c2.939,4.563,6.757,8.093,11.322,9.977c0.171,0.164,0.351,0.329,0.545,0.491   C44.104,87.55,40.109,86.562,36.397,85.019z"/><path d="M27.888,51.109l-5.592,8.644c0.309,0.145,0.641,0.246,0.986,0.314l5.48-8.471C28.456,51.458,28.162,51.297,27.888,51.109z"/><path d="M26.343,49.58l-5.689,8.794c0.199,0.283,0.428,0.543,0.693,0.77l5.667-8.76C26.767,50.136,26.542,49.868,26.343,49.58z"/><path d="M25.733,48.445c-0.166-0.409-0.286-0.841-0.357-1.288l-3.917,6.055c0.248,0.363,0.386,0.801,0.37,1.269L25.733,48.445z"/><path d="M41.109,15.003L17.062,52.175c0.248,0.227,0.506,0.441,0.779,0.639l24.71-38.198C42.082,14.731,41.604,14.86,41.109,15.003   z"/><path d="M37.864,16.103L15.626,50.479c0.193,0.299,0.404,0.586,0.633,0.861l23.166-35.809   C38.913,15.706,38.392,15.897,37.864,16.103z"/><path d="M34.263,17.753L14.575,48.186c0.115,0.402,0.26,0.795,0.434,1.174l21.008-32.476   C35.435,17.149,34.849,17.442,34.263,17.753z"/><path d="M29.929,20.534l-10.797,16.69c-0.096,0.358-0.197,0.71-0.287,1.08c-0.234,0.125-0.457,0.271-0.68,0.415l-3.807,5.886   c-0.025,0.173-0.064,0.341-0.08,0.518c-0.043,0.49-0.041,0.974,0,1.447l17.828-27.56C31.374,19.477,30.647,19.983,29.929,20.534z"/><path d="M20.575,32.92l6.18-9.556C24.347,25.854,22.192,28.979,20.575,32.92z"/></g><text x="0" y="115" fill="#000000" font-size="5px" font-weight="bold" font-family="'Helvetica Neue', Helvetica, Arial-Unicode, Arial, Sans-serif">Created by mungang kim</text><text x="0" y="120" fill="#000000" font-size="5px" font-weight="bold" font-family="'Helvetica Neue', Helvetica, Arial-Unicode, Arial, Sans-serif">from the Noun Project</text></svg>