<?xml version="1.0" encoding="UTF-8" standalone="no"?>
<svg
   version="1.1"
   x="0px"
   y="0px"
   viewBox="0 0 100 125"
   enable-background="new 0 0 100 100"
   xml:space="preserve"
   id="svg27"
   sodipodi:docname="meeting.svg"
   inkscape:version="1.4.4 (dcaf3e7d9e, 2026-05-05)"
   xmlns:inkscape="http://www.inkscape.org/namespaces/inkscape"
   xmlns:sodipodi="http://sodipodi.sourceforge.net/DTD/sodipodi-0.dtd"
   xmlns="http://www.w3.org/2000/svg"
   xmlns:svg="http://www.w3.org/2000/svg"><defs
     id="defs27" /><sodipodi:namedview
     id="namedview27"
     pagecolor="#505050"
     bordercolor="#ffffff"
     borderopacity="1"
     inkscape:showpageshadow="0"
     inkscape:pageopacity="0"
     inkscape:pagecheckerboard="1"
     inkscape:deskcolor="#505050"
     inkscape:zoom="5.104"
     inkscape:cx="49.960815"
     inkscape:cy="62.5"
     inkscape:window-width="1536"
     inkscape:window-height="891"
     inkscape:window-x="0"
     inkscape:window-y="0"
     inkscape:window-maximized="1"
     inkscape:current-layer="svg27" /><g
     id="g26"><path
       d="M90.899,45.698C88.689,24.704,71.127,8.872,50.048,8.872c-1.443,0-2.908,0.077-4.352,0.229   c-22.552,2.373-38.969,22.649-36.596,45.2c2.208,20.994,19.771,36.826,40.851,36.826c1.443,0,2.907-0.077,4.352-0.229   C76.854,88.526,93.272,68.249,90.899,45.698z M45.501,86.049c-0.146-0.234-0.453-0.307-0.688-0.161   c-0.234,0.146-0.307,0.454-0.161,0.688c0.057,0.091,0.84,1.333,2.144,2.417c-4.175-0.333-8.17-1.32-11.882-2.864   c1.656-0.458,2.646-1.188,2.705-1.232c0.219-0.168,0.26-0.481,0.092-0.7c-0.167-0.218-0.48-0.259-0.7-0.094   c-0.017,0.013-1.413,1.054-3.677,1.327C21.298,79.78,12.569,68.159,11.089,54.093C8.832,32.639,24.45,13.348,45.905,11.09   c1.224-0.129,2.461-0.191,3.688-0.206v17.934c-0.095-0.084-0.184-0.175-0.281-0.257L26.466,63.875   c0.209,0.277,0.432,0.543,0.68,0.785l22.447-34.693v2.074L28.021,65.387c0.271,0.191,0.566,0.352,0.865,0.504L39.91,48.848   l0.059-0.092l9.624-14.873v2.077l-8.358,12.918c0.402,0.015,0.801,0.018,1.195-0.007l7.163-11.072v2.074l-5.7,8.813   c0.482-0.09,0.957-0.209,1.418-0.354l4.282-6.62v2.078l-2.456,3.796c0.729-0.371,1.414-0.814,2.048-1.322l0.408-0.631v29.689   c-0.665,0.246-1.063,0.353-1.084,0.357c-0.268,0.068-0.43,0.34-0.363,0.607c0.058,0.227,0.262,0.378,0.484,0.378   c0.041,0,0.082-0.005,0.123-0.015c0.019-0.005,0.321-0.084,0.84-0.266v5.935c-0.077-0.017-0.131-0.029-0.135-0.03   c-0.27-0.066-0.539,0.1-0.604,0.366c-0.065,0.269,0.099,0.539,0.366,0.604c0.028,0.007,0.164,0.039,0.373,0.083v5.775   c-0.275-0.005-0.551-0.011-0.826-0.019C46.813,88.116,45.518,86.076,45.501,86.049z"
       id="path1" /><path
       d="M42.497,76.068c-2.128-0.181-3.999,1.42-4.183,3.507c-0.187,2.12,1.388,3.997,3.509,4.183   c0.115,0.01,0.229,0.015,0.342,0.015c1.979,0,3.666-1.547,3.839-3.521C46.19,78.131,44.616,76.254,42.497,76.068z M41.911,82.762   c-1.572-0.138-2.738-1.528-2.601-3.099c0.128-1.464,1.378-2.609,2.845-2.609c0.084,0,0.169,0.003,0.254,0.011   c1.57,0.138,2.736,1.528,2.599,3.099C44.872,81.711,43.476,82.903,41.911,82.762z"
       id="path2" /><path
       d="M37.798,56.029l0.162-0.248l2.339-3.617c0.033-0.178,0.064-0.357,0.08-0.541c0.041-0.459,0.016-0.907-0.051-1.344   L29.952,66.318c0.334,0.105,0.682,0.18,1.039,0.234L37.798,56.029z"
       id="path3" /><path
       d="M25.353,61.676c0.115,0.398,0.268,0.777,0.451,1.145l6.625-10.241c-0.482,0.249-1,0.435-1.543,0.544L25.353,61.676z"
       id="path4" /><path
       d="M35.474,46.03c0.12,0.522,0.169,1.067,0.139,1.628l2.361-3.652c-0.525,0.547-1.189,0.953-1.938,1.154L35.474,46.03z"
       id="path5" /><path
       d="M39.127,41.489c-0.038,0.431-0.153,0.833-0.308,1.212l9.589-14.824c-0.273-0.188-0.555-0.366-0.848-0.531l-8.483,13.115   C39.13,40.795,39.157,41.137,39.127,41.489z"
       id="path6" /><path
       d="M46.551,26.832c-0.309-0.139-0.623-0.266-0.945-0.379l-7.628,11.791c0.245,0.259,0.469,0.537,0.642,0.85L46.551,26.832z"
       id="path7" /><path
       d="M24.593,60.775l4.882-7.547c-0.091-0.004-0.18-0.002-0.271-0.01c-0.283-0.024-0.557-0.076-0.824-0.138l-5.283,8.165   C23.632,61.186,24.134,61.02,24.593,60.775z"
       id="path8" /><path
       d="M46.273,19.293l1.113-1.722c-0.008-0.387-0.191-0.746-0.512-1.05l-2.394,3.701C45.237,19.934,45.825,19.617,46.273,19.293z   "
       id="path9" /><path
       d="M41.422,29.002l-5.245,8.109c0.328,0.101,0.631,0.25,0.918,0.422l7.384-11.413c-0.341-0.083-0.684-0.151-1.036-0.206   c0.012,0.159,0.021,0.318,0.007,0.482C43.342,27.627,42.515,28.615,41.422,29.002z"
       id="path10" /><path
       d="M26.403,52.22l-5.592,8.644c0.309,0.145,0.641,0.246,0.986,0.314l5.48-8.471C26.972,52.568,26.678,52.407,26.403,52.22z"
       id="path11" /><path
       d="M42.638,20.791c0.055-0.014,0.105-0.028,0.158-0.041l3.113-4.812c-0.305-0.118-0.646-0.207-1.02-0.264l-3.543,5.476   C41.763,21.023,42.192,20.902,42.638,20.791z"
       id="path12" /><path
       d="M38.997,28.834l-5.371,8.304c0.414-0.138,0.859-0.193,1.316-0.193l5.047-7.804C39.636,29.092,39.299,28.992,38.997,28.834z   "
       id="path13" /><path
       d="M24.858,50.69l-5.689,8.794c0.199,0.283,0.428,0.543,0.693,0.77l5.667-8.76C25.282,51.246,25.058,50.979,24.858,50.69z"
       id="path14" /><path
       d="M38.11,28.131c-0.246-0.283-0.437-0.61-0.565-0.967l-9.362,14.471c0.426-0.114,0.867-0.184,1.32-0.201L38.11,28.131z"
       id="path15" /><path
       d="M19.975,54.322c0.248,0.363,0.386,0.801,0.37,1.269l3.904-6.035c-0.166-0.409-0.286-0.841-0.357-1.288L19.975,54.322z"
       id="path16" /><path
       d="M39.61,21.757l3.973-6.139c-0.162,0.011-0.328,0.022-0.496,0.044c-0.246,0.031-0.514,0.068-0.793,0.107l-4.354,6.729   C38.466,22.236,39.022,21.988,39.61,21.757z"
       id="path17" /><path
       d="M26.235,42.57l10.086-15.593c-0.699,0.341-1.359,0.746-1.975,1.212L18.038,53.397c0.12-0.01,0.241-0.016,0.365-0.005   c0.252,0.022,0.487,0.095,0.705,0.195l4.836-7.475C24.251,44.651,25.09,43.409,26.235,42.57z"
       id="path18" /><path
       d="M39.625,16.113L15.577,53.285c0.248,0.227,0.506,0.441,0.779,0.639l24.71-38.198   C40.598,15.842,40.119,15.971,39.625,16.113z"
       id="path19" /><path
       d="M36.38,17.213L14.142,51.59c0.193,0.299,0.404,0.586,0.633,0.861L37.94,16.643C37.429,16.816,36.907,17.008,36.38,17.213z"
       id="path20" /><path
       d="M32.778,18.863L13.091,49.296c0.115,0.402,0.26,0.795,0.434,1.174l21.008-32.476C33.95,18.26,33.364,18.553,32.778,18.863z   "
       id="path21" /><path
       d="M28.444,21.645l-10.797,16.69c-0.096,0.358-0.197,0.71-0.287,1.08c-0.234,0.125-0.457,0.271-0.68,0.415l-3.807,5.886   c-0.025,0.173-0.064,0.341-0.08,0.518c-0.043,0.49-0.041,0.974,0,1.447l17.828-27.56C29.89,20.587,29.163,21.094,28.444,21.645z"
       id="path22" /><path
       d="M19.091,34.03l6.18-9.556C22.862,26.965,20.708,30.089,19.091,34.03z"
       id="path23" /><path
       d="M38.819,42.701l-0.846,1.305C38.333,43.633,38.618,43.191,38.819,42.701z"
       id="path24" /><path
       d="M35,77.588c-0.081-0.03-8.21-3.138-11.45-10.09c-0.117-0.251-0.414-0.361-0.664-0.242c-0.25,0.116-0.359,0.414-0.242,0.664   c3.416,7.33,11.658,10.475,12.007,10.605c0.058,0.021,0.116,0.031,0.175,0.031c0.203,0,0.393-0.124,0.469-0.325   C35.39,77.973,35.259,77.685,35,77.588z"
       id="path25" /><path
       d="M39.354,73.604c0.08,0,0.163-0.02,0.24-0.062c0.241-0.133,0.33-0.438,0.197-0.679c-0.026-0.049-1.994-3.687-2.744-8.25   c1.086-1.081,1.816-2.513,1.96-4.141c0.01-0.117,0.01-0.229,0.014-0.342l-2.135,3.302c-0.069-0.623-0.104-1.261-0.113-1.902   l2.068-3.198c-0.1-0.414-0.238-0.816-0.413-1.199l-1.639,2.532c-0.064-0.179-0.226-0.314-0.428-0.331   c-0.283-0.021-0.516,0.182-0.539,0.457c-0.041,0.488-0.056,0.974-0.057,1.456l-3.502,5.411c0.439-0.01,0.869-0.057,1.285-0.143   l2.29-3.542c0.05,0.598,0.114,1.188,0.206,1.76l-0.754,1.165c0.305-0.155,0.592-0.338,0.869-0.533   c0.822,4.401,2.646,7.784,2.754,7.979C39.007,73.51,39.177,73.604,39.354,73.604z"
       id="path26" /></g><text
     x="0"
     y="115"
     fill="#000000"
     font-size="5px"
     font-weight="bold"
     font-family="'Helvetica Neue', Helvetica, Arial-Unicode, Arial, Sans-serif"
     id="text26">Created by mungang kim</text><text
     x="0"
     y="120"
     fill="#000000"
     font-size="5px"
     font-weight="bold"
     font-family="'Helvetica Neue', Helvetica, Arial-Unicode, Arial, Sans-serif"
     id="text27">from the Noun Project</text><path
     style="fill:#ffffff;stroke-width:0.195925"
     d="M 47.897316,88.386289 C 47.408944,88.0278 46.606003,87.266307 46.113004,86.694083 45.478852,85.958025 45.122482,85.68981 44.894763,85.777194 c -0.568734,0.218245 -0.352414,0.989303 0.574976,2.049448 0.53819,0.615231 0.783069,1.025239 0.612328,1.025239 -1.600987,0 -8.033726,-1.533329 -10.102077,-2.407964 l -0.657941,-0.278221 1.294697,-0.605861 c 0.987639,-0.462172 1.294696,-0.702696 1.294696,-1.014155 0,-0.664759 -0.526726,-0.677439 -1.919788,-0.04622 -2.108529,0.955416 -2.329942,0.959424 -4.086378,0.07398 C 25.873006,81.53249 20.021785,75.982253 16.421818,69.886442 12.437578,63.139939 10.675229,55.708487 11.10719,47.475774 11.822404,33.844543 20.385891,21.083541 32.915361,14.978017 c 4.845152,-2.361009 10.847037,-3.90827 15.160333,-3.90827 h 1.395309 v 8.61845 c 0,7.299628 -0.04412,8.67126 -0.288299,8.963558 -0.158564,0.18981 -5.359687,8.187075 -11.558049,17.771701 -10.284674,15.903358 -11.247008,17.460843 -11.009587,17.818415 0.143088,0.215504 0.340781,0.417861 0.439317,0.449685 0.09854,0.03182 5.160544,-7.647142 11.248907,-17.06437 10.455344,-16.171896 11.073034,-17.080983 11.128959,-16.379071 0.05477,0.687414 -0.751479,1.99672 -10.747952,17.454177 -9.946653,15.38042 -10.779104,16.731536 -10.454758,16.968703 0.193824,0.141728 0.445763,0.257618 0.559865,0.257536 0.114103,-8.5e-5 4.792099,-7.089959 10.395547,-15.755279 9.648991,-14.92145 10.191223,-15.715615 10.247339,-15.008452 0.05396,0.68003 -0.308895,1.315578 -4.065439,7.120606 -2.268579,3.505662 -4.12469,6.424306 -4.12469,6.485877 0,0.06157 0.299518,0.111944 0.665594,0.111944 0.656312,0 0.712993,-0.07365 4.065439,-5.282261 3.307464,-5.138732 3.401459,-5.261654 3.459235,-4.523799 0.05375,0.686469 -0.210262,1.17392 -2.7814,5.135317 -2.252679,3.470741 -2.76933,4.388836 -2.495608,4.434728 0.849522,0.142427 1.324732,-0.348019 3.25837,-3.362855 1.948672,-3.038272 1.959567,-3.050676 2.018392,-2.297545 0.04988,0.638652 -0.11329,1.024508 -1.042087,2.464262 -1.448109,2.244753 -1.500084,2.385548 -0.734465,1.989631 0.326066,-0.168615 0.867915,-0.538027 1.204108,-0.820915 l 0.611262,-0.514343 v 14.58547 14.585468 l -0.636755,0.18262 c -0.49657,0.142413 -0.636756,0.288838 -0.636756,0.665098 0,0.414106 0.09023,0.48221 0.636756,0.480583 l 0.636755,-0.0019 v 2.79382 c 0,2.257414 -0.0524,2.793823 -0.272925,2.793823 -0.483578,0 -0.568527,0.654955 -0.130913,1.009314 0.373254,0.302242 0.403838,0.536074 0.403838,3.08753 0,3.179288 -0.03622,3.227592 -1.573687,2.099006 z m -3.962381,-4.967331 c 1.889299,-0.869232 2.711033,-3.417859 1.71994,-5.334422 -0.603437,-1.166916 -2.23251,-2.159097 -3.550796,-2.162596 -0.642666,-0.0017 -1.682257,0.399343 -2.382141,0.918977 -2.104211,1.562279 -1.850173,5.285108 0.442176,6.479943 1.266084,0.659918 2.480996,0.691524 3.770821,0.0981 z m -8.60698,-5.285478 c 0.05204,-0.365857 -0.189025,-0.557434 -1.567399,-1.245633 -4.445897,-2.219765 -8.103479,-5.509465 -9.744679,-8.764555 -0.484873,-0.961678 -0.894826,-1.202918 -1.320616,-0.777128 -0.263403,0.263403 -0.248111,0.38873 0.140732,1.153358 1.22152,2.402024 3.718385,5.2297 6.207092,7.029475 1.642995,1.188174 5.345498,3.147723 5.831523,3.08633 0.234769,-0.02965 0.416503,-0.222813 0.453347,-0.481847 z m 4.324653,-4.545892 c 0.3472,-0.219878 0.247416,-0.628511 -0.7274,-2.978814 -0.429638,-1.035865 -1.00721,-2.77981 -1.283498,-3.875435 L 37.139371,64.741291 37.8175,63.852894 c 0.708701,-0.928447 1.341638,-2.702012 1.234222,-3.458431 -0.05053,-0.355791 -0.249974,-0.146753 -1.027533,1.076932 -0.53066,0.835129 -0.993533,1.518417 -1.028605,1.518417 -0.03507,0 -0.06377,-0.341352 -0.06377,-0.75856 0,-0.58066 0.232244,-1.114324 0.990276,-2.275513 0.808976,-1.239225 0.967632,-1.620053 0.866587,-2.080102 -0.201551,-0.917661 -0.441169,-0.847863 -1.21843,0.354927 -0.58826,0.910314 -0.825073,1.12646 -1.177226,1.074485 -0.242457,-0.03578 -0.440831,-0.0975 -0.440831,-0.137138 0,-0.03964 1.013911,-1.639331 2.253135,-3.554866 2.074646,-3.206889 2.253135,-3.557081 2.253135,-4.420567 0,-0.515777 -0.06612,-0.934132 -0.146944,-0.929678 -0.137954,0.0076 -10.244144,15.589146 -10.38479,16.011085 -0.03586,0.107582 0.20443,0.235177 0.533977,0.283544 0.585402,0.08592 0.65317,0.0047 2.947371,-3.530337 2.316254,-3.569065 2.348192,-3.607065 2.348192,-2.793849 0,0.705593 -0.254172,1.217427 -1.763323,3.550881 -0.969828,1.499552 -1.763323,2.771862 -1.763323,2.827357 0,0.0555 0.301109,0.100901 0.669132,0.100901 0.626499,0 0.737565,-0.107411 1.743242,-1.685903 1.067606,-1.675686 1.074924,-1.682212 1.20783,-1.077092 0.09913,0.451338 0.02418,0.786046 -0.289787,1.294051 -0.446842,0.723004 -0.40797,0.812679 0.209109,0.482428 0.292169,-0.156364 0.378969,-0.138946 0.378969,0.07604 0,0.936233 1.927451,6.406354 2.641142,7.495586 0.33425,0.510129 0.452929,0.550006 0.863347,0.290092 z M 29.24093,57.714496 c 1.763398,-2.726087 3.161006,-5.001692 3.105798,-5.0569 -0.05521,-0.05521 -0.434765,0.03171 -0.843458,0.193139 -0.65845,0.260086 -1.058648,0.779676 -3.513821,4.562106 -2.580466,3.975454 -2.75721,4.307398 -2.573733,4.833721 0.108354,0.310822 0.291963,0.533481 0.408022,0.494794 0.116058,-0.03869 1.653795,-2.300774 3.417192,-5.02686 z m -2.181838,-0.549049 c 1.935489,-2.982853 2.419122,-3.857827 2.208047,-3.994736 -0.680694,-0.441516 -1.048236,-0.04269 -3.632188,3.941358 -1.432735,2.209052 -2.606957,4.073207 -2.609382,4.142569 -0.0024,0.06936 0.346503,0.03704 0.775396,-0.07182 0.741876,-0.188309 0.900353,-0.383716 3.258127,-4.017366 z m -2.393823,-0.189655 c 2.537886,-3.950608 2.697445,-4.254466 2.362631,-4.499289 -0.197485,-0.144405 -0.45242,-0.261301 -0.566523,-0.259771 -0.160778,0.0022 -5.48902,8.001164 -5.753175,8.63694 -0.0605,0.145607 0.402146,0.31421 0.941485,0.343109 0.176173,0.0094 1.384039,-1.681242 3.015582,-4.220989 z m -1.850241,-1.084583 c 1.514235,-2.341732 2.753154,-4.333848 2.753154,-4.426924 0,-0.09307 -0.172404,-0.325251 -0.383121,-0.515946 -0.374061,-0.338521 -0.426473,-0.280175 -2.216656,2.467674 -4.168443,6.39837 -3.956358,6.01413 -3.560809,6.451207 0.193711,0.214048 0.42017,0.364992 0.503241,0.335431 0.08307,-0.02956 1.389957,-1.96971 2.904191,-4.311442 z m -0.314898,-3.39759 c 1.813853,-2.824612 1.886914,-2.980175 1.679339,-3.575627 -0.11936,-0.342396 -0.274518,-0.622091 -0.344795,-0.621544 -0.07028,5.47e-4 -0.533279,0.639751 -1.028892,1.420454 -0.495614,0.780704 -1.350863,2.124791 -1.900554,2.98686 -0.966231,1.515319 -0.991727,1.591589 -0.767373,2.295446 0.127636,0.400428 0.284683,0.664926 0.348992,0.587775 0.06431,-0.07715 0.970287,-1.469166 2.013283,-3.093364 z m 6.204704,-17.442843 c 6.733892,-10.409573 12.269811,-19.038762 12.302041,-19.175974 0.04594,-0.195571 -0.106048,-0.205531 -0.70338,-0.04609 -0.747637,0.199556 -0.984723,0.547721 -12.597783,18.500015 -6.509694,10.063146 -11.919903,18.478646 -12.022688,18.701109 -0.144644,0.313062 -0.10297,0.465836 0.184391,0.67596 0.2042,0.149314 0.421381,0.271481 0.482625,0.271481 0.06124,0 5.620902,-8.516924 12.354794,-18.926497 z M 21.56363,50.014252 c 1.273251,-1.969046 2.492353,-4.056958 2.709115,-4.639806 0.236654,-0.636335 0.795721,-1.497387 1.399319,-2.155173 1.045362,-1.13921 10.777168,-16.043813 10.59475,-16.226232 -0.05709,-0.05709 -0.530219,0.16984 -1.051403,0.504282 -0.868156,0.557094 -1.632631,1.666952 -9.11795,13.237342 -4.49369,6.946097 -8.170345,12.661081 -8.170345,12.699969 0,0.03889 0.297341,0.09072 0.660757,0.115199 0.653361,0.044 0.686666,0.0044 2.975757,-3.535581 z m 4.964127,-15.503053 c 6.261026,-9.682634 11.383685,-17.693144 11.383685,-17.801134 0,-0.109318 -0.151973,-0.134752 -0.342868,-0.05738 -0.188578,0.07643 -0.563284,0.223107 -0.832681,0.325948 -0.360997,0.137809 -3.416005,4.718734 -11.616544,17.418783 l -11.126732,17.231796 0.35087,0.474515 c 0.267928,0.362341 0.404025,0.419876 0.575728,0.243387 0.123671,-0.127118 5.347515,-8.15328 11.608542,-17.835913 z m -2.365804,-0.250586 c 5.745971,-8.895936 10.407397,-16.214252 10.358723,-16.262926 -0.04867,-0.04867 -0.473866,0.09977 -0.944869,0.329878 -0.811003,0.396211 -1.37017,1.212411 -10.554647,15.406305 -5.334052,8.24336 -9.769421,15.137556 -9.856376,15.320434 -0.1657,0.34849 0.136382,1.40197 0.398157,1.388529 0.08349,-0.0043 4.853041,-7.286285 10.599012,-16.18222 z m -2.354655,-0.293287 c 4.881944,-7.553197 8.832916,-13.776432 8.779938,-13.829412 -0.05298,-0.05298 -0.564736,0.231058 -1.137236,0.631193 -0.944682,0.660263 -1.538995,1.49756 -6.42884,9.057261 -2.963362,4.581359 -5.479862,8.593134 -5.592222,8.915056 -0.11236,0.321922 -0.34455,0.687875 -0.515978,0.813225 -0.171428,0.125351 -1.174733,1.548192 -2.229566,3.161865 -1.684413,2.576805 -1.928644,3.05917 -2.006323,3.962561 -0.04865,0.565733 -0.0114,1.026969 0.08276,1.024971 0.09416,-0.002 4.165523,-6.183523 9.047467,-13.73672 z m 15.655943,11.046389 c 0.966099,-1.481681 3.858007,-5.946068 6.426463,-9.92086 4.376029,-6.772091 4.646918,-7.243713 4.304461,-7.494123 -0.200999,-0.146975 -0.45881,-0.265711 -0.572913,-0.263858 -0.114103,0.0019 -2.080989,2.911753 -4.37086,6.466443 -3.186205,4.946116 -4.165419,6.612308 -4.172001,7.098902 -0.02094,1.548337 -1.121463,3.30532 -2.434034,3.885933 -0.972917,0.430366 -1.288211,1.014442 -1.140819,2.113339 0.05962,0.444504 0.12972,0.808189 0.155778,0.808189 0.02606,0 0.837823,-1.212284 1.803925,-2.693965 z M 33.828768,34.972571 c 2.343289,-3.609914 4.261786,-6.695729 4.26333,-6.857367 0.0031,-0.321102 -0.519804,-1.100305 -0.647762,-0.965321 -0.08033,0.08474 -8.933532,13.776771 -9.215416,14.252219 -0.117725,0.198564 0.01876,0.243643 0.59321,0.195925 l 0.746114,-0.06198 z m 8.728244,-1.732849 c 2.070151,-3.209985 3.81827,-5.977998 3.88471,-6.151139 0.173858,-0.453065 -0.643781,-0.876706 -0.986097,-0.510923 -0.317257,0.339005 -7.544183,11.526202 -7.544183,11.678304 0,0.159786 0.62317,0.832214 0.765084,0.825562 0.06412,-0.003 1.810337,-2.631818 3.880486,-5.841804 z M 40.938409,31.80319 c 1.998962,-3.090143 3.634475,-5.658995 3.634475,-5.708562 0,-0.04957 -0.255874,-0.127676 -0.568609,-0.173576 -0.530447,-0.07785 -0.576951,-0.03129 -0.69288,0.693693 -0.116307,0.727339 -1.168881,2.075141 -1.798454,2.302886 -0.238633,0.08632 -5.364822,7.927837 -5.364822,8.206548 0,0.183027 0.53479,0.372222 0.920776,0.32575 0.129271,-0.01556 1.870552,-2.556596 3.869514,-5.646739 z m -3.391795,1.321651 c 1.390136,-2.147717 2.459703,-3.967256 2.376817,-4.043418 -0.08289,-0.07616 -0.335676,-0.194159 -0.561756,-0.262213 -0.360245,-0.108441 -0.735599,0.377609 -3.036834,3.932438 -1.444179,2.230895 -2.657129,4.134034 -2.695442,4.229194 -0.03832,0.09516 0.258693,0.145102 0.660017,0.11098 0.717193,-0.06098 0.772937,-0.128871 3.257198,-3.966981 z M 22.221716,29.412745 c 3.321114,-5.136124 3.491309,-5.461247 2.063824,-3.942526 -1.80214,1.917323 -4.531903,6.285514 -5.081135,8.130878 -0.236408,0.794305 0.07445,0.362806 3.017311,-4.188352 z M 41.582721,18.88286 c 1.103257,-1.657125 2.00696,-3.079079 2.008229,-3.159898 0.0013,-0.08082 -0.294673,-0.146943 -0.657651,-0.146943 -0.638742,0 -0.727455,0.104778 -2.759012,3.258601 -1.154479,1.79223 -2.145298,3.379115 -2.20182,3.526411 -0.0773,0.20144 0.108763,0.176979 0.750783,-0.0987 0.759326,-0.326054 1.074991,-0.69912 2.859471,-3.379467 z m 0.834991,2.077002 c 0.288287,-0.07102 0.699042,-0.457739 0.998352,-0.939946 0.279696,-0.450609 0.976075,-1.548263 1.547508,-2.439231 0.571434,-0.890968 1.003656,-1.655255 0.960495,-1.698416 -0.04316,-0.04316 -0.306971,-0.135823 -0.586244,-0.205916 -0.47604,-0.119479 -0.616806,0.0409 -2.252733,2.566588 -2.017894,3.115403 -2.005051,3.090556 -1.523239,2.946798 0.201327,-0.06007 0.586464,-0.163515 0.855861,-0.229877 z m 3.059578,-1.084509 c 0.548733,-0.265637 1.03696,-0.721951 1.433333,-1.339645 0.697012,-1.086199 0.707598,-1.153103 0.279212,-1.764707 l -0.32192,-0.459605 -1.05932,1.64054 c -1.714596,2.655345 -1.702892,2.587391 -0.331305,1.923417 z"
     id="path27" /><path
     style="fill:#ffffff;stroke-width:0.195925"
     d="m 40.712882,82.198371 c -1.579316,-0.962965 -1.652489,-3.302417 -0.140494,-4.491753 0.800674,-0.629811 1.666517,-0.707654 2.714564,-0.244053 0.744027,0.329119 0.982493,0.567584 1.311612,1.311612 0.54089,1.222772 0.369688,2.08737 -0.606655,3.063713 -0.658368,0.658368 -0.854617,0.744314 -1.698091,0.743666 -0.599951,-4.61e-4 -1.186348,-0.142591 -1.580936,-0.383185 z"
     id="path28" /><ellipse
     style="fill:none"
     id="path30"
     ry="41.340126"
     rx="38.597179"
     cy="50.156738"
     cx="53.683384" /></svg>
