<svg xmlns="http://www.w3.org/2000/svg" xmlns:xlink="http://www.w3.org/1999/xlink" version="1.1" x="0px" y="0px" viewBox="0 0 100 125" enable-background="new 0 0 100 100" xml:space="preserve"><g><path d="M91.102,45.754C88.892,24.76,71.329,8.928,50.25,8.928c-1.443,0-2.908,0.077-4.352,0.229   C23.347,11.53,6.93,31.807,9.303,54.357c2.208,20.994,19.771,36.826,40.851,36.826c1.443,0,2.907-0.077,4.352-0.229   C77.057,88.582,93.475,68.305,91.102,45.754z M40.109,87.867c1.538-0.069,3.154-0.459,4.803-1.144   c0.21,0.318,0.949,1.381,2.085,2.325C44.637,88.86,42.336,88.456,40.109,87.867z M54.296,88.966   c-1.375,0.145-2.769,0.218-4.143,0.218c-0.397,0-0.79-0.016-1.185-0.027c-1.609-0.812-2.76-2.323-3.128-2.851   c1.499-0.715,3.015-1.658,4.514-2.801c0.797,0.14,2.015,0.305,3.353,0.305c1.166,0,2.415-0.126,3.535-0.505   c0.262-0.089,0.402-0.372,0.313-0.634c-0.088-0.262-0.37-0.399-0.634-0.313c-1.775,0.603-3.983,0.488-5.497,0.294   c5.004-4.157,9.704-10.479,12.735-17.854c0.974-1.506,1.881-3.184,2.67-5.067c0.107-0.255-0.013-0.548-0.268-0.654   c-0.167-0.07-0.345-0.036-0.48,0.062c0.765-2.824,1.272-5.746,1.449-8.717c0.162-2.727,0.042-5.467-0.312-8.165l2.137-3.303   c-0.296-0.162-0.562-0.363-0.812-0.586L67,40.753c-0.089-0.542-0.186-1.083-0.294-1.62l1.075-1.662   c-0.211-0.325-0.396-0.67-0.516-1.045l-0.862,1.333c-0.117-0.501-0.245-0.998-0.378-1.493l1.053-1.628   c0.021-0.199,0.065-0.391,0.111-0.582c-0.215,0.028-0.434,0.038-0.658,0.019c-0.086-0.007-0.164-0.032-0.248-0.047l-0.621,0.961   c-0.491-1.637-1.064-3.234-1.72-4.776c0.038-0.116,0.076-0.231,0.125-0.342c-0.055,0.006-0.112,0-0.167,0.007l-0.063,0.098   c-0.842-1.951-1.807-3.812-2.882-5.549c0.804-0.014,1.381-0.005,1.397-0.005c0.276,0.02,0.504-0.215,0.509-0.49   c0.005-0.276-0.215-0.504-0.491-0.51c-0.081-0.001-0.947-0.015-2.05,0.02c-4.274-6.468-10.077-11.058-16.466-11.986   c0.744-0.122,1.494-0.229,2.253-0.309c1.375-0.145,2.769-0.218,4.143-0.218c20.053,0,36.76,15.062,38.863,35.035   C91.37,67.418,75.751,86.708,54.296,88.966z"/><path d="M72.552,25.29c0.156-0.96-0.072-1.924-0.643-2.715c-0.575-0.797-1.428-1.322-2.401-1.479   c-2.035-0.329-3.891,1.05-4.21,3.022c-0.321,1.988,1.045,3.87,3.044,4.193c0.2,0.033,0.398,0.049,0.594,0.049   C70.744,28.36,72.266,27.069,72.552,25.29z M68.502,27.325c-1.456-0.236-2.45-1.604-2.218-3.048c0.21-1.292,1.316-2.229,2.63-2.229   c0.143,0,0.288,0.012,0.435,0.035c0.709,0.114,1.331,0.497,1.75,1.078c0.414,0.573,0.579,1.273,0.467,1.97   C71.334,26.562,69.99,27.569,68.502,27.325z"/><path d="M81.77,43.265l1.9-2.938c0.033-0.16,0.078-0.314,0.094-0.479c0.041-0.465-0.012-0.913-0.102-1.348l-3.58,5.531   C80.699,43.882,81.268,43.621,81.77,43.265z"/><path d="M78.477,44.171c0.059,0.005,0.115-0.005,0.174-0.002l4.533-7.006c-0.174-0.313-0.389-0.603-0.629-0.87l-4.975,7.691   C77.869,44.071,78.164,44.144,78.477,44.171z"/><path d="M74.424,46.788l7.27-11.238c-0.273-0.189-0.568-0.349-0.879-0.481L72.99,47.162C73.492,47.107,73.977,46.981,74.424,46.788   z"/><path d="M70.654,46.855c0.322,0.126,0.664,0.212,1.018,0.268l8.01-12.38c-0.125-0.021-0.244-0.059-0.371-0.069   c-0.262-0.023-0.521-0.019-0.773-0.001L70.654,46.855z"/><path d="M69.656,46.324l7.293-11.276c-0.392,0.165-0.746,0.393-1.079,0.647c-0.234,1.636-1.335,2.944-2.798,3.505l-4.186,6.47   C69.119,45.913,69.377,46.131,69.656,46.324z"/><path d="M68.174,44.697l3.371-5.213c-0.146,0.002-0.29,0.019-0.439,0.006c-0.232-0.021-0.452-0.073-0.672-0.128l-2.771,4.285   c0.02-0.008,0.041-0.013,0.061-0.021C67.826,44.005,67.984,44.359,68.174,44.697z"/><path d="M73.875,57.544l-4.951,7.654c0.217,0.369,0.327,0.805,0.287,1.264c-0.006,0.064-0.024,0.124-0.036,0.188l5.722-8.846   C74.549,57.683,74.207,57.601,73.875,57.544z"/><path d="M66.855,68.396l-2.869,4.435c0.158,0.336,0.348,0.654,0.584,0.938l3.712-5.739c-0.395,0.27-0.876,0.418-1.39,0.374   C66.88,68.402,66.868,68.397,66.855,68.396z"/><path d="M65.787,67.97l0.582-0.9c-0.348,0.127-0.673,0.301-0.974,0.51c-0.98,0.679-1.672,1.754-1.804,3.035   c-0.023,0.254-0.018,0.502,0.002,0.746L65.787,67.97z"/><path d="M71.283,57.634l-4.213,6.513c0.065-0.001,0.129-0.009,0.195-0.003c0.302,0.026,0.583,0.116,0.833,0.252l4.493-6.945   C72.143,57.466,71.707,57.528,71.283,57.634z"/><path d="M66.51,62.937l2.92-4.514C67.887,59.392,66.775,61.009,66.51,62.937z"/><path d="M80.221,65.242l3.775-5.835c0.111-0.598,0.199-1.209,0.254-1.846c0.014-0.125,0.02-0.27,0.02-0.42l-4.891,7.562   C79.688,64.843,79.971,65.022,80.221,65.242z"/><path d="M75.768,70.284l-5.01,7.746c0.787-0.557,1.572-1.146,2.328-1.76l3.522-5.444C76.3,70.686,76.018,70.506,75.768,70.284z"/><path d="M74.644,68.105l-8.101,12.522c0.604-0.312,1.232-0.666,1.875-1.059l6.607-10.213C74.82,68.976,74.688,68.552,74.644,68.105   z"/><path d="M83.52,54.384l-6.588,10.184c0.406-0.136,0.845-0.192,1.297-0.161l5.828-9.009C83.938,54.999,83.764,54.642,83.52,54.384z"/><path d="M80.391,57.147l2.031-3.141c-0.141,0.02-0.283,0.051-0.441,0.109C81.002,54.481,80.824,55.638,80.391,57.147z"/><path d="M77.654,59.536L67.477,75.269l-0.896,1.385l-3.424,5.295c0.115-0.02,0.23-0.039,0.361-0.072   c0.344-0.09,0.723-0.225,1.119-0.377L78.27,60.427C78.107,60.108,77.904,59.81,77.654,59.536z"/><path d="M76.795,58.788c-0.271-0.195-0.553-0.371-0.85-0.525L65.424,74.524c0.273,0.189,0.568,0.348,0.887,0.469L76.795,58.788z"/><path d="M63.625,78.45c-0.609,0.293-1.104,0.691-1.465,1.121c-0.205,0.24-0.365,0.49-0.477,0.734   c-0.293,0.639-0.248,1.23,0.209,1.518l2.4-3.711C64.078,78.224,63.861,78.337,63.625,78.45z"/><path d="M81.15,66.594c0.636-1.087,1.214-2.178,1.68-3.308l-1.864,2.883C81.039,66.305,81.096,66.448,81.15,66.594z"/><path d="M76.375,73.265c0.676-0.709,1.281-1.414,1.766-2.092c0.013-0.018,0.024-0.035,0.037-0.053   c-0.139,0.007-0.277,0.015-0.419,0.005L76.375,73.265z"/><path d="M69.175,66.649l-0.893,1.38C68.742,67.715,69.071,67.229,69.175,66.649z"/><path d="M66.928,66.206l-0.559,0.863c0.275-0.1,0.555-0.182,0.85-0.225C67.107,66.64,67.018,66.423,66.928,66.206z"/><path d="M59.484,16.751c-0.307-0.014-0.514,0.193-0.53,0.469c-0.018,0.275,0.192,0.513,0.468,0.529   c2.187,0.137,4.602,1.771,4.626,1.787c0.086,0.059,0.185,0.087,0.281,0.087c0.16,0,0.316-0.076,0.414-0.218   c0.155-0.229,0.097-0.539-0.131-0.695C64.505,18.637,61.949,16.905,59.484,16.751z"/><path d="M77.903,32.464c0.063,0.219,0.263,0.36,0.479,0.36c0.046,0,0.094-0.007,0.141-0.021c0.265-0.077,0.417-0.354,0.339-0.619   c-0.515-1.762-3.298-4.844-3.416-4.975c-0.186-0.204-0.501-0.219-0.706-0.034c-0.204,0.185-0.22,0.501-0.034,0.706   C75.468,28.722,77.528,31.185,77.903,32.464z"/><path d="M70.783,37.288c0.055,0.02,0.111,0.028,0.166,0.028c0.206,0,0.399-0.128,0.472-0.334c0.662-1.88-0.052-5.679-0.082-5.839   c-0.052-0.271-0.321-0.446-0.585-0.397c-0.271,0.052-0.449,0.313-0.397,0.585c0.195,1.021,0.597,3.97,0.121,5.319   C70.386,36.911,70.522,37.196,70.783,37.288z"/></g><text x="0" y="115" fill="#000000" font-size="5px" font-weight="bold" font-family="'Helvetica Neue', Helvetica, Arial-Unicode, Arial, Sans-serif">Created by mungang kim</text><text x="0" y="120" fill="#000000" font-size="5px" font-weight="bold" font-family="'Helvetica Neue', Helvetica, Arial-Unicode, Arial, Sans-serif">from the Noun Project</text></svg>