<svg xmlns="http://www.w3.org/2000/svg" id="svg29" xml:space="preserve" viewBox="8.7 8.15 83.25 83.5" y="0px" x="0px" version="1.1" style="max-height: 500px" width="83.25" height="83.5"><defs id="defs29"/><g id="g28"><path id="path1" d="M91.102,45.754C88.892,24.76,71.329,8.928,50.25,8.928c-1.443,0-2.908,0.077-4.352,0.229   C23.347,11.53,6.93,31.807,9.303,54.357c2.208,20.994,19.771,36.826,40.851,36.826c1.443,0,2.907-0.077,4.352-0.229   C77.057,88.582,93.475,68.305,91.102,45.754z M40.109,87.867c1.538-0.069,3.154-0.459,4.803-1.144   c0.21,0.318,0.949,1.381,2.085,2.325C44.637,88.86,42.336,88.456,40.109,87.867z M54.296,88.966   c-1.375,0.145-2.769,0.218-4.143,0.218c-0.397,0-0.79-0.016-1.185-0.027c-1.609-0.812-2.76-2.323-3.128-2.851   c1.499-0.715,3.015-1.658,4.514-2.801c0.797,0.14,2.015,0.305,3.353,0.305c1.166,0,2.415-0.126,3.535-0.505   c0.262-0.089,0.402-0.372,0.313-0.634c-0.088-0.262-0.37-0.399-0.634-0.313c-1.775,0.603-3.983,0.488-5.497,0.294   c5.004-4.157,9.704-10.479,12.735-17.854c0.974-1.506,1.881-3.184,2.67-5.067c0.107-0.255-0.013-0.548-0.268-0.654   c-0.167-0.07-0.345-0.036-0.48,0.062c0.765-2.824,1.272-5.746,1.449-8.717c0.162-2.727,0.042-5.467-0.312-8.165l2.137-3.303   c-0.296-0.162-0.562-0.363-0.812-0.586L67,40.753c-0.089-0.542-0.186-1.083-0.294-1.62l1.075-1.662   c-0.211-0.325-0.396-0.67-0.516-1.045l-0.862,1.333c-0.117-0.501-0.245-0.998-0.378-1.493l1.053-1.628   c0.021-0.199,0.065-0.391,0.111-0.582c-0.215,0.028-0.434,0.038-0.658,0.019c-0.086-0.007-0.164-0.032-0.248-0.047l-0.621,0.961   c-0.491-1.637-1.064-3.234-1.72-4.776c0.038-0.116,0.076-0.231,0.125-0.342c-0.055,0.006-0.112,0-0.167,0.007l-0.063,0.098   c-0.842-1.951-1.807-3.812-2.882-5.549c0.804-0.014,1.381-0.005,1.397-0.005c0.276,0.02,0.504-0.215,0.509-0.49   c0.005-0.276-0.215-0.504-0.491-0.51c-0.081-0.001-0.947-0.015-2.05,0.02c-4.274-6.468-10.077-11.058-16.466-11.986   c0.744-0.122,1.494-0.229,2.253-0.309c1.375-0.145,2.769-0.218,4.143-0.218c20.053,0,36.76,15.062,38.863,35.035   C91.37,67.418,75.751,86.708,54.296,88.966z"/><path id="path2" d="M72.552,25.29c0.156-0.96-0.072-1.924-0.643-2.715c-0.575-0.797-1.428-1.322-2.401-1.479   c-2.035-0.329-3.891,1.05-4.21,3.022c-0.321,1.988,1.045,3.87,3.044,4.193c0.2,0.033,0.398,0.049,0.594,0.049   C70.744,28.36,72.266,27.069,72.552,25.29z M68.502,27.325c-1.456-0.236-2.45-1.604-2.218-3.048c0.21-1.292,1.316-2.229,2.63-2.229   c0.143,0,0.288,0.012,0.435,0.035c0.709,0.114,1.331,0.497,1.75,1.078c0.414,0.573,0.579,1.273,0.467,1.97   C71.334,26.562,69.99,27.569,68.502,27.325z"/><path id="path3" d="M81.77,43.265l1.9-2.938c0.033-0.16,0.078-0.314,0.094-0.479c0.041-0.465-0.012-0.913-0.102-1.348l-3.58,5.531   C80.699,43.882,81.268,43.621,81.77,43.265z"/><path id="path4" d="M78.477,44.171c0.059,0.005,0.115-0.005,0.174-0.002l4.533-7.006c-0.174-0.313-0.389-0.603-0.629-0.87l-4.975,7.691   C77.869,44.071,78.164,44.144,78.477,44.171z"/><path id="path5" d="M74.424,46.788l7.27-11.238c-0.273-0.189-0.568-0.349-0.879-0.481L72.99,47.162C73.492,47.107,73.977,46.981,74.424,46.788   z"/><path id="path6" d="M70.654,46.855c0.322,0.126,0.664,0.212,1.018,0.268l8.01-12.38c-0.125-0.021-0.244-0.059-0.371-0.069   c-0.262-0.023-0.521-0.019-0.773-0.001L70.654,46.855z"/><path id="path7" d="M69.656,46.324l7.293-11.276c-0.392,0.165-0.746,0.393-1.079,0.647c-0.234,1.636-1.335,2.944-2.798,3.505l-4.186,6.47   C69.119,45.913,69.377,46.131,69.656,46.324z"/><path id="path8" d="M68.174,44.697l3.371-5.213c-0.146,0.002-0.29,0.019-0.439,0.006c-0.232-0.021-0.452-0.073-0.672-0.128l-2.771,4.285   c0.02-0.008,0.041-0.013,0.061-0.021C67.826,44.005,67.984,44.359,68.174,44.697z"/><path id="path9" d="M73.875,57.544l-4.951,7.654c0.217,0.369,0.327,0.805,0.287,1.264c-0.006,0.064-0.024,0.124-0.036,0.188l5.722-8.846   C74.549,57.683,74.207,57.601,73.875,57.544z"/><path id="path10" d="M66.855,68.396l-2.869,4.435c0.158,0.336,0.348,0.654,0.584,0.938l3.712-5.739c-0.395,0.27-0.876,0.418-1.39,0.374   C66.88,68.402,66.868,68.397,66.855,68.396z"/><path id="path11" d="M65.787,67.97l0.582-0.9c-0.348,0.127-0.673,0.301-0.974,0.51c-0.98,0.679-1.672,1.754-1.804,3.035   c-0.023,0.254-0.018,0.502,0.002,0.746L65.787,67.97z"/><path id="path12" d="M71.283,57.634l-4.213,6.513c0.065-0.001,0.129-0.009,0.195-0.003c0.302,0.026,0.583,0.116,0.833,0.252l4.493-6.945   C72.143,57.466,71.707,57.528,71.283,57.634z"/><path id="path13" d="M66.51,62.937l2.92-4.514C67.887,59.392,66.775,61.009,66.51,62.937z"/><path id="path14" d="M80.221,65.242l3.775-5.835c0.111-0.598,0.199-1.209,0.254-1.846c0.014-0.125,0.02-0.27,0.02-0.42l-4.891,7.562   C79.688,64.843,79.971,65.022,80.221,65.242z"/><path id="path15" d="M75.768,70.284l-5.01,7.746c0.787-0.557,1.572-1.146,2.328-1.76l3.522-5.444C76.3,70.686,76.018,70.506,75.768,70.284z"/><path id="path16" d="M74.644,68.105l-8.101,12.522c0.604-0.312,1.232-0.666,1.875-1.059l6.607-10.213C74.82,68.976,74.688,68.552,74.644,68.105   z"/><path id="path17" d="M83.52,54.384l-6.588,10.184c0.406-0.136,0.845-0.192,1.297-0.161l5.828-9.009C83.938,54.999,83.764,54.642,83.52,54.384z"/><path id="path18" d="M80.391,57.147l2.031-3.141c-0.141,0.02-0.283,0.051-0.441,0.109C81.002,54.481,80.824,55.638,80.391,57.147z"/><path id="path19" d="M77.654,59.536L67.477,75.269l-0.896,1.385l-3.424,5.295c0.115-0.02,0.23-0.039,0.361-0.072   c0.344-0.09,0.723-0.225,1.119-0.377L78.27,60.427C78.107,60.108,77.904,59.81,77.654,59.536z"/><path id="path20" d="M76.795,58.788c-0.271-0.195-0.553-0.371-0.85-0.525L65.424,74.524c0.273,0.189,0.568,0.348,0.887,0.469L76.795,58.788z"/><path id="path21" d="M63.625,78.45c-0.609,0.293-1.104,0.691-1.465,1.121c-0.205,0.24-0.365,0.49-0.477,0.734   c-0.293,0.639-0.248,1.23,0.209,1.518l2.4-3.711C64.078,78.224,63.861,78.337,63.625,78.45z"/><path id="path22" d="M81.15,66.594c0.636-1.087,1.214-2.178,1.68-3.308l-1.864,2.883C81.039,66.305,81.096,66.448,81.15,66.594z"/><path id="path23" d="M76.375,73.265c0.676-0.709,1.281-1.414,1.766-2.092c0.013-0.018,0.024-0.035,0.037-0.053   c-0.139,0.007-0.277,0.015-0.419,0.005L76.375,73.265z"/><path id="path24" d="M69.175,66.649l-0.893,1.38C68.742,67.715,69.071,67.229,69.175,66.649z"/><path id="path25" d="M66.928,66.206l-0.559,0.863c0.275-0.1,0.555-0.182,0.85-0.225C67.107,66.64,67.018,66.423,66.928,66.206z"/><path id="path26" d="M59.484,16.751c-0.307-0.014-0.514,0.193-0.53,0.469c-0.018,0.275,0.192,0.513,0.468,0.529   c2.187,0.137,4.602,1.771,4.626,1.787c0.086,0.059,0.185,0.087,0.281,0.087c0.16,0,0.316-0.076,0.414-0.218   c0.155-0.229,0.097-0.539-0.131-0.695C64.505,18.637,61.949,16.905,59.484,16.751z"/><path id="path27" d="M77.903,32.464c0.063,0.219,0.263,0.36,0.479,0.36c0.046,0,0.094-0.007,0.141-0.021c0.265-0.077,0.417-0.354,0.339-0.619   c-0.515-1.762-3.298-4.844-3.416-4.975c-0.186-0.204-0.501-0.219-0.706-0.034c-0.204,0.185-0.22,0.501-0.034,0.706   C75.468,28.722,77.528,31.185,77.903,32.464z"/><path id="path28" d="M70.783,37.288c0.055,0.02,0.111,0.028,0.166,0.028c0.206,0,0.399-0.128,0.472-0.334c0.662-1.88-0.052-5.679-0.082-5.839   c-0.052-0.271-0.321-0.446-0.585-0.397c-0.271,0.052-0.449,0.313-0.397,0.585c0.195,1.021,0.597,3.97,0.121,5.319   C70.386,36.911,70.522,37.196,70.783,37.288z"/></g><text id="text28" font-family="'Helvetica Neue', Helvetica, Arial-Unicode, Arial, Sans-serif" font-weight="bold" font-size="5px" fill="#000000" y="115" x="0">Created by mungang kim</text><text id="text29" font-family="'Helvetica Neue', Helvetica, Arial-Unicode, Arial, Sans-serif" font-weight="bold" font-size="5px" fill="#000000" y="120" x="0">from the Noun Project</text><path id="path29" d="m 48.197492,88.506797 c -0.431034,-0.32224 -1.09228,-0.914808 -1.469436,-1.316819 -0.643043,-0.685421 -0.662965,-0.744876 -0.319991,-0.954968 0.20116,-0.123221 1.187613,-0.759969 2.192116,-1.414994 l 1.826371,-1.190954 1.33453,0.172837 c 0.733991,0.09506 1.995775,0.11988 2.803965,0.05516 2.645768,-0.211887 3.613366,-0.68424 2.887843,-1.409763 -0.24024,-0.240239 -0.432332,-0.259945 -0.957434,-0.09821 -1.026912,0.316291 -2.808456,0.468376 -3.779977,0.322688 l -0.885173,-0.132741 1.919859,-1.888634 c 3.897457,-3.834071 7.383067,-8.853674 9.695983,-13.963113 0.457156,-1.0099 1.195194,-2.455798 1.640084,-3.213108 0.923768,-1.572472 1.822075,-3.527175 1.822075,-3.964804 0,-0.163289 -0.146232,-0.403818 -0.324963,-0.534508 -0.30172,-0.220623 -0.30217,-0.328354 -0.0063,-1.506291 0.920509,-3.664567 1.339959,-9.497467 0.947788,-13.180043 l -0.207631,-1.949722 1.058593,-1.661542 c 0.582226,-0.91385 1.014307,-1.733199 0.96018,-1.820778 -0.05413,-0.08758 -0.267817,-0.249898 -0.474868,-0.360709 -0.324654,-0.173748 -0.464701,-0.06653 -1.017694,0.779126 -0.352681,0.53933 -0.707361,0.982183 -0.78818,0.984118 -0.343688,0.0082 -0.111123,-1.329708 0.348777,-2.00651 0.480157,-0.706613 0.485545,-0.749201 0.171599,-1.356305 -0.30714,-0.59394 -0.338248,-0.607467 -0.593683,-0.258137 -0.148259,0.202755 -0.269562,0.439961 -0.269562,0.527124 0,0.394369 -0.356538,0.10424 -0.445813,-0.362778 -0.06867,-0.359238 0.07647,-0.807481 0.466971,-1.442124 0.31164,-0.506477 0.566617,-1.021324 0.566617,-1.144105 0,-0.362509 -1.133715,-0.263197 -1.347044,0.118 -0.105031,0.18768 -0.227274,0.297888 -0.271651,0.244906 -0.04438,-0.05298 -0.425694,-1.110241 -0.847367,-2.349465 C 64.41242,30.9904 64.023328,29.931718 63.969444,29.876997 63.91556,29.822277 63.282702,28.609993 62.563092,27.183032 L 61.25471,24.588558 h 0.647636 c 0.712121,0 1.194884,-0.417099 1.017572,-0.879166 -0.08379,-0.218348 -0.41893,-0.296383 -1.272891,-0.296383 H 60.48787 l -1.339385,-1.812304 c -3.507252,-4.745617 -8.467586,-8.47002 -12.952223,-9.725009 -2.017848,-0.564678 -1.212135,-0.708289 3.960478,-0.705922 4.667967,0.0021 6.20347,0.171459 9.698276,1.06944 3.844978,0.987957 8.296081,2.926888 11.520625,5.018463 12.379016,8.02955 19.281154,22.551633 17.595795,37.02152 -2.247755,19.298419 -17.9467,33.963995 -37.149336,34.70401 l -2.840909,0.109481 z m 15.922811,-6.72186 c 0.510796,-0.178064 1.61992,-1.784441 7.376415,-10.683471 3.726374,-5.760643 6.772422,-10.581597 6.768995,-10.713229 -0.01059,-0.406768 -0.569067,-1.0178 -0.746344,-0.816578 -0.286612,0.32533 -14.153483,21.844142 -14.266789,22.139413 -0.129718,0.33804 0.06288,0.354435 0.867723,0.07386 z m -0.926513,-1.77788 c 0.647011,-0.985345 1.138494,-1.829424 1.092184,-1.875733 -0.126556,-0.126557 -1.330719,0.520631 -1.853571,0.996217 -1.019169,0.927038 -1.399094,2.671048 -0.581876,2.671048 0.09178,0 0.696252,-0.806189 1.343263,-1.791532 z m 4.261116,0.244983 c 0.399802,-0.204052 0.871663,-0.534675 1.04858,-0.734718 0.314339,-0.355431 6.063017,-9.165896 6.439098,-9.868611 0.130764,-0.244336 0.105425,-0.556313 -0.08124,-1.000261 L 74.590069,68.003274 73.32576,69.95383 c -0.695368,1.072808 -2.51193,3.874918 -4.036804,6.226915 -1.524875,2.351996 -2.772498,4.313693 -2.772498,4.359326 0,0.149878 0.20179,0.08794 0.938448,-0.288031 z m 4.548407,-3.008701 c 0.924069,-0.680008 1.463405,-1.346229 2.94155,-3.63359 1.717047,-2.657057 1.791107,-2.815223 1.441977,-3.079584 -0.202416,-0.15327 -0.456197,-0.278784 -0.563956,-0.278917 -0.107759,-1.33e-4 -1.165752,1.509667 -2.351097,3.355112 -1.185345,1.845444 -2.318121,3.606071 -2.517281,3.912506 -0.492721,0.758119 -0.279823,0.70219 1.048807,-0.275527 z m -0.20123,-10.520093 5.124959,-7.924088 -0.454117,-0.344385 c -0.351079,-0.266246 -0.50364,-0.290939 -0.672382,-0.108827 -0.281817,0.30414 -10.255467,15.758053 -10.380907,16.084942 -0.136774,0.356426 0.736657,0.72989 1.030209,0.440499 0.125002,-0.123229 2.533509,-3.789892 5.352238,-8.148141 z m -5.068523,3.97164 c 1.119818,-1.688932 2.223922,-3.394794 2.453564,-3.790803 0.229643,-0.396009 1.631793,-2.593358 3.115889,-4.882998 2.131194,-3.287966 2.640561,-4.200438 2.423378,-4.341195 -0.672829,-0.436064 -1.044483,-0.0414 -3.432087,3.644561 -2.234418,3.449473 -2.402997,3.775618 -2.297893,4.445641 0.180736,1.152175 -0.812974,2.509689 -1.837114,2.509689 -0.24445,0 -0.787016,0.654196 -1.665631,2.008322 -0.716695,1.104577 -1.359631,2.155682 -1.428744,2.335788 -0.132379,0.344975 0.196579,1.141783 0.471379,1.141783 0.08868,0 1.077441,-1.381853 2.197259,-3.070788 z m 11.36596,0.675778 c 0.140022,-0.261634 0.113098,-0.347937 -0.10855,-0.347937 -0.266999,0 -1.689444,1.963819 -1.670239,2.305921 0.01015,0.18085 1.528683,-1.490656 1.778789,-1.957984 z M 65.058274,69.268029 c 0.748121,-1.180601 1.448387,-2.151779 1.556146,-2.158174 0.414877,-0.02461 0.693729,-0.3446 0.573448,-0.658043 -0.174702,-0.455268 -0.365458,-0.409071 -0.67141,0.162608 -0.144177,0.269397 -0.359403,0.489812 -0.47828,0.489812 -0.409761,0 -1.689189,1.215263 -2.074428,1.970394 -0.314696,0.616853 -0.554705,2.339951 -0.325931,2.339951 0.03313,0 0.672334,-0.965947 1.420455,-2.146548 z M 81.8747,65.487853 c 0.723454,-1.296938 1.15568,-2.302116 0.989908,-2.302116 -0.236597,0 -2.004651,3.013644 -1.911093,3.257451 0.05681,0.148058 0.133634,0.269194 0.170711,0.269194 0.03708,0 0.37479,-0.551038 0.750474,-1.224529 z m 0.295186,-3.026246 c 1.012404,-1.579407 1.914003,-3.186717 2.003556,-3.571801 0.232882,-1.00142 0.21926,-1.903197 -0.02506,-1.658877 -0.108476,0.108475 -1.249924,1.823307 -2.53655,3.810736 l -2.33932,3.613507 0.430358,0.338511 c 0.236697,0.186182 0.474442,0.338752 0.528321,0.339042 0.05388,2.92e-4 0.926293,-1.291712 1.938695,-2.871118 z M 70.336991,61.179643 c 1.185344,-1.846792 2.185372,-3.482215 2.222284,-3.634277 0.05243,-0.215993 -0.07614,-0.246252 -0.587774,-0.138319 -0.360188,0.07599 -0.715645,0.194991 -0.789904,0.264456 -0.07426,0.06947 -1.059859,1.553746 -2.190222,3.298397 l -2.055201,3.172095 0.524859,0.192139 c 0.288673,0.105678 0.568943,0.194655 0.622823,0.197727 0.05388,0.0031 1.06779,-1.505425 2.253135,-3.352218 z m 10.031357,0.144808 c 3.882869,-5.993093 3.812775,-5.867513 3.594934,-6.440476 -0.107661,-0.283168 -0.276389,-0.514853 -0.374951,-0.514853 -0.136013,0 -5.781926,8.541052 -6.581356,9.956178 -0.111522,0.197414 0.0274,0.243364 0.592337,0.195925 0.721164,-0.06056 0.78445,-0.133621 2.769036,-3.196774 z M 69.455329,58.430652 c 0,-0.274804 -1.135531,0.614344 -1.655954,1.296652 -0.641707,0.841323 -1.274355,2.26671 -1.274122,2.870658 1.41e-4,0.366241 0.369772,-0.07624 1.465133,-1.753889 0.805719,-1.234036 1.464943,-2.320074 1.464943,-2.413421 z M 81.56704,55.544671 c 0.954619,-1.499798 0.980981,-1.7675 0.142364,-1.445694 -0.174435,0.06694 -0.453082,0.384554 -0.619212,0.705813 -0.41664,0.805694 -0.85315,2.307279 -0.670725,2.307279 0.08246,0 0.598866,-0.705329 1.147573,-1.567398 z m -7.022534,-8.752402 c 0.359943,-0.407778 7.292737,-11.257408 7.22858,-11.312524 -0.195841,-0.16824 -0.994706,-0.530879 -1.044332,-0.474067 -0.285555,0.32691 -7.746779,11.99117 -7.746779,12.110672 0,0.1894 1.357884,-0.09224 1.562531,-0.324081 z m 1.328186,-5.941956 3.993703,-6.17163 -0.628819,-0.06345 c -0.348177,-0.03513 -0.735685,0.05231 -0.868268,0.195925 -0.686003,0.743082 -7.740589,11.950819 -7.632449,12.125795 0.06982,0.112974 0.355365,0.178311 0.63454,0.145196 0.430744,-0.05109 1.112204,-0.994545 4.501293,-6.23184 z M 73.45838,40.653901 c 1.983348,-3.070453 3.577382,-5.611346 3.542298,-5.646432 -0.158307,-0.158306 -1.275756,0.594627 -1.275756,0.8596 0,0.818597 -1.723151,3.023997 -2.362747,3.023997 -0.180018,0 -4.209785,6.005846 -4.45028,6.632568 -0.108225,0.282028 0.487121,0.863997 0.782972,0.76538 0.08658,-0.02886 1.780162,-2.564661 3.763513,-5.635113 z m -3.42098,1.371961 1.58155,-2.449059 -0.595349,-0.176249 c -0.327441,-0.09694 -0.627347,-0.141018 -0.666454,-0.09796 -0.413089,0.454802 -2.665141,4.178119 -2.665141,4.406279 0,0.476764 0.410339,1.119832 0.595998,0.934029 0.09231,-0.09239 0.879543,-1.270055 1.749396,-2.617038 z m 10.936577,-1.244604 c 1.207847,-1.869877 2.196086,-3.531368 2.196086,-3.692204 0,-0.160835 -0.154291,-0.43118 -0.342869,-0.600762 -0.320435,-0.288161 -0.506305,-0.05479 -2.840909,3.566873 -1.373922,2.131361 -2.49804,3.931604 -2.49804,4.000536 0,0.06894 0.29017,0.125333 0.644823,0.125333 0.620004,0 0.729356,-0.130864 2.840909,-3.399776 z m 0.458948,2.797988 c 0.494164,-0.264467 2.254483,-2.941873 2.415151,-3.67339 0.06628,-0.301793 0.04071,-0.763789 -0.05683,-1.026657 -0.163634,-0.441002 -0.30915,-0.275729 -1.882569,2.138174 -2.059237,3.159232 -2.09653,3.238791 -1.392778,2.971224 0.28895,-0.109859 0.701611,-0.294065 0.917022,-0.409351 z m -9.764281,-7.13724 c 0.184587,-0.843497 0.04265,-4.131534 -0.219892,-5.094044 -0.122116,-0.447676 -0.273719,-0.587774 -0.636046,-0.587774 -0.422551,0 -0.470145,0.07663 -0.425876,0.685737 0.02741,0.377155 0.07003,1.857809 0.0947,3.290343 l 0.04486,2.604604 0.485378,-0.05758 c 0.390823,-0.04637 0.51879,-0.210257 0.656881,-0.841284 z m 7.257804,-3.907754 c 0.297165,-0.774399 -3.049957,-5.496634 -3.896013,-5.496634 -0.744816,0 -0.515321,0.748568 0.690762,2.253134 0.647857,0.80819 1.420684,1.932099 1.71739,2.497575 0.394612,0.752067 0.652212,1.028266 0.959338,1.028605 0.230929,2.56e-4 0.468764,-0.12695 0.528523,-0.28268 z m -8.107471,-4.610981 c 1.541346,-0.786336 2.313735,-3.28455 1.501264,-4.855694 -0.397194,-0.76809 -1.567909,-1.775918 -2.23175,-1.921236 -0.294359,-0.06444 -0.650574,-0.153092 -0.791587,-0.197012 -0.490601,-0.152804 -2.09044,0.333464 -2.748522,0.835407 -2.303345,1.756846 -1.544918,5.634441 1.277829,6.533137 0.770076,0.245175 2.076293,0.07295 2.992766,-0.394602 z m -5.966796,-8.43051 c 0.287649,-0.465424 -0.191309,-0.976307 -1.526372,-1.628119 -2.253375,-1.100155 -4.136989,-1.451331 -4.380523,-0.816692 -0.184576,0.480998 0.265637,0.821213 1.261555,0.953326 0.51302,0.06805 1.591517,0.46864 2.39666,0.89019 1.522368,0.797068 2.041838,0.935973 2.24868,0.601295 z" style="fill:#ffffff;stroke-width:0.195925"/><path id="path30" d="m 67.969276,27.059583 c -2.48984,-1.111135 -1.847937,-4.822122 0.8341,-4.822122 1.545649,0 2.611201,0.995705 2.611201,2.440037 0,1.836009 -1.831467,3.102286 -3.445301,2.382085 z" style="fill:#ffffff;stroke-width:0.195925"/><path id="path31" d="m 43.697517,88.534953 c -2.94191,-0.530988 -2.937579,-0.526399 -0.971268,-1.029192 0.96177,-0.245928 1.836839,-0.462447 1.944597,-0.481154 0.107759,-0.01871 0.58186,0.384778 1.053558,0.896631 l 0.857634,0.930643 -0.661709,-0.01758 c -0.36394,-0.0097 -1.364205,-0.144376 -2.222812,-0.299346 z" style="fill:#ffffff;stroke-width:0.195925"/></svg>