<?xml version="1.0" encoding="UTF-8" standalone="no"?>
<svg
   version="1.1"
   x="0px"
   y="0px"
   viewBox="0 0 100 125"
   enable-background="new 0 0 100 100"
   xml:space="preserve"
   id="svg10"
   sodipodi:docname="quiet.svg"
   inkscape:version="1.4.4 (dcaf3e7d9e, 2026-05-05)"
   xmlns:inkscape="http://www.inkscape.org/namespaces/inkscape"
   xmlns:sodipodi="http://sodipodi.sourceforge.net/DTD/sodipodi-0.dtd"
   xmlns="http://www.w3.org/2000/svg"
   xmlns:svg="http://www.w3.org/2000/svg"><defs
     id="defs10" /><sodipodi:namedview
     id="namedview10"
     pagecolor="#505050"
     bordercolor="#ffffff"
     borderopacity="1"
     inkscape:showpageshadow="0"
     inkscape:pageopacity="0"
     inkscape:pagecheckerboard="1"
     inkscape:deskcolor="#505050"
     inkscape:zoom="5.104"
     inkscape:cx="49.960815"
     inkscape:cy="62.5"
     inkscape:window-width="1536"
     inkscape:window-height="891"
     inkscape:window-x="0"
     inkscape:window-y="0"
     inkscape:window-maximized="1"
     inkscape:current-layer="svg10" /><g
     id="g9"><path
       d="M92.384,44.588c-1.608-15.277-11.351-27.813-24.657-33.512c-0.925-0.409-1.87-0.779-2.84-1.098   c-4.194-1.437-8.688-2.216-13.354-2.216c-1.443,0-2.908,0.077-4.352,0.229c-22.552,2.373-38.969,22.65-36.596,45.201   c2.208,20.994,19.771,36.826,40.851,36.826c1.443,0,2.907-0.077,4.352-0.229C78.339,87.416,94.757,67.139,92.384,44.588z    M36.397,85.019c1.656-0.458,2.646-1.188,2.705-1.232c0.219-0.168,0.26-0.481,0.092-0.7c-0.167-0.218-0.48-0.259-0.7-0.094   c-0.017,0.013-1.413,1.054-3.677,1.327C22.782,78.67,14.054,67.049,12.573,52.982C10.316,31.528,25.935,12.237,47.39,9.98   c0.833-0.087,1.672-0.14,2.511-0.175c-6.353,3.019-12.312,10.833-16.119,20.442l-14.259,22.04c0.12-0.01,0.241-0.016,0.365-0.005   c0.252,0.022,0.487,0.095,0.705,0.195l4.836-7.475c0.307-1.462,1.146-2.704,2.291-3.543l4.62-7.143   c-0.384,1.211-0.731,2.441-1.042,3.687l-1.631,2.521c0.354-0.095,0.721-0.15,1.095-0.18c-0.551,2.649-0.934,5.347-1.105,8.048   c-0.087,1.355-0.118,2.71-0.104,4.061l-4.972,7.683c0.535-0.061,1.037-0.227,1.496-0.471l3.521-5.442   c0.027,0.635,0.065,1.268,0.114,1.898l-2.875,4.444c0.115,0.398,0.268,0.777,0.451,1.145l2.571-3.975   c0.062,0.583,0.137,1.164,0.218,1.742l-2.127,3.287c0.209,0.277,0.432,0.543,0.68,0.785l1.68-2.597   c0.092,0.542,0.193,1.079,0.301,1.614l-1.105,1.709c0.271,0.191,0.566,0.352,0.865,0.504l0.539-0.833   c1.022,4.427,2.602,8.564,4.692,12.148c-2.2-1.017-7.962-4.117-10.567-9.708c-0.117-0.251-0.414-0.361-0.664-0.242   c-0.25,0.116-0.359,0.414-0.242,0.664c3.416,7.33,11.658,10.475,12.007,10.605c0.058,0.021,0.116,0.031,0.175,0.031   c0.037,0,0.067-0.023,0.103-0.031c2.939,4.563,6.757,8.093,11.322,9.977c0.171,0.164,0.351,0.329,0.545,0.491   C44.104,87.55,40.109,86.562,36.397,85.019z"
       id="path1" /><path
       d="M27.888,51.109l-5.592,8.644c0.309,0.145,0.641,0.246,0.986,0.314l5.48-8.471C28.456,51.458,28.162,51.297,27.888,51.109z"
       id="path2" /><path
       d="M26.343,49.58l-5.689,8.794c0.199,0.283,0.428,0.543,0.693,0.77l5.667-8.76C26.767,50.136,26.542,49.868,26.343,49.58z"
       id="path3" /><path
       d="M25.733,48.445c-0.166-0.409-0.286-0.841-0.357-1.288l-3.917,6.055c0.248,0.363,0.386,0.801,0.37,1.269L25.733,48.445z"
       id="path4" /><path
       d="M41.109,15.003L17.062,52.175c0.248,0.227,0.506,0.441,0.779,0.639l24.71-38.198C42.082,14.731,41.604,14.86,41.109,15.003   z"
       id="path5" /><path
       d="M37.864,16.103L15.626,50.479c0.193,0.299,0.404,0.586,0.633,0.861l23.166-35.809   C38.913,15.706,38.392,15.897,37.864,16.103z"
       id="path6" /><path
       d="M34.263,17.753L14.575,48.186c0.115,0.402,0.26,0.795,0.434,1.174l21.008-32.476   C35.435,17.149,34.849,17.442,34.263,17.753z"
       id="path7" /><path
       d="M29.929,20.534l-10.797,16.69c-0.096,0.358-0.197,0.71-0.287,1.08c-0.234,0.125-0.457,0.271-0.68,0.415l-3.807,5.886   c-0.025,0.173-0.064,0.341-0.08,0.518c-0.043,0.49-0.041,0.974,0,1.447l17.828-27.56C31.374,19.477,30.647,19.983,29.929,20.534z"
       id="path8" /><path
       d="M20.575,32.92l6.18-9.556C24.347,25.854,22.192,28.979,20.575,32.92z"
       id="path9" /></g><text
     x="0"
     y="115"
     fill="#000000"
     font-size="5px"
     font-weight="bold"
     font-family="'Helvetica Neue', Helvetica, Arial-Unicode, Arial, Sans-serif"
     id="text9">Created by mungang kim</text><text
     x="0"
     y="120"
     fill="#000000"
     font-size="5px"
     font-weight="bold"
     font-family="'Helvetica Neue', Helvetica, Arial-Unicode, Arial, Sans-serif"
     id="text10">from the Noun Project</text><path
     style="fill:#ffffff;stroke-width:0.195925"
     d="m 45.944357,87.545513 c -1.915145,-0.302845 -4.77498,-1.000548 -6.829122,-1.666073 l -2.420817,-0.784326 1.283057,-0.596133 c 1.398887,-0.649953 1.612092,-0.906673 1.209843,-1.456779 -0.254328,-0.347815 -0.305182,-0.341379 -1.309034,0.165655 -0.574436,0.290139 -1.464591,0.639398 -1.978125,0.77613 -0.910543,0.242439 -0.97127,0.230047 -2.44906,-0.499794 C 30.046277,81.802637 26.196813,78.915466 23.296429,75.868 16.66095,68.896027 12.96055,60.17607 12.510315,50.450627 11.640203,31.655468 25.175924,14.346567 43.59326,10.703082 c 1.718204,-0.33991 4.931662,-0.8088814 5.542575,-0.8088814 0.09071,0 -0.638982,0.5377224 -1.621531,1.1949394 -0.98255,0.657217 -2.575319,1.945646 -3.539486,2.863176 -1.712492,1.629659 -1.963523,1.795324 -1.550214,1.023048 0.155175,-0.289944 0.13903,-0.378969 -0.06872,-0.378969 -1.146646,0 -1.08321,-0.08981 -13.395345,18.964459 -11.152376,17.259428 -11.966026,18.576231 -11.676138,18.896554 0.17138,0.189373 0.408144,0.340901 0.526141,0.336728 0.117997,-0.0042 4.084258,-6.001718 8.813913,-13.327874 4.729655,-7.326158 8.632647,-13.287011 8.673315,-13.246342 0.04067,0.04067 -0.354053,1.034784 -0.877163,2.209143 -0.711463,1.597211 -2.691806,4.821754 -7.859686,12.79774 -3.799719,5.864396 -6.953523,10.779659 -7.008453,10.922805 -0.05614,0.146297 0.03098,0.260267 0.198951,0.260267 0.164354,0 0.426641,0.04905 0.582861,0.108995 0.339575,0.130307 4.96243,-6.907675 5.511019,-8.390151 0.190089,-0.513688 0.766413,-1.395349 1.28072,-1.959248 0.514307,-0.563899 1.784851,-2.339367 2.823431,-3.945484 1.038581,-1.606117 1.888328,-2.85317 1.888328,-2.771226 0,0.727531 -0.760751,2.734902 -1.384651,3.653636 -0.912213,1.343291 -0.959326,1.602845 -0.259039,1.427083 0.44709,-0.112212 0.495741,-0.07878 0.386441,0.265597 -0.33546,1.056942 -0.921423,5.963325 -1.031911,8.640398 l -0.124035,3.005306 -2.41801,3.751457 c -1.329906,2.063302 -2.418011,3.824712 -2.418011,3.914246 0,0.08953 0.198374,0.105766 0.440831,0.03608 0.242457,-0.06969 0.588335,-0.167587 0.768619,-0.217546 0.180284,-0.04996 1.06025,-1.24016 1.955481,-2.644894 1.599675,-2.5101 1.6304,-2.543607 1.785067,-1.946726 0.140977,0.544044 0.0033,0.845247 -1.321123,2.890408 -1.478809,2.28355 -1.549163,2.5048 -1.075894,3.383462 0.11221,0.208327 0.494431,-0.242634 1.396755,-1.647951 l 1.24227,-1.934763 0.06209,0.738852 c 0.05125,0.609822 -0.111277,1.011232 -0.930643,2.298535 -0.546004,0.857823 -0.992735,1.62796 -0.992735,1.711412 0,0.187361 0.763348,0.893846 0.845709,0.78271 0.03278,-0.04424 0.353911,-0.549377 0.713616,-1.12253 0.46931,-0.747797 0.70028,-0.969122 0.817853,-0.783699 0.284671,0.448952 0.186003,0.928116 -0.361468,1.7554 l -0.531312,0.802866 0.473838,0.383692 c 0.446412,0.361483 0.488192,0.364059 0.721845,0.04452 0.288352,-0.394344 0.241941,-0.490643 0.857007,1.778187 0.600175,2.213905 1.73982,5.179669 2.802953,7.294283 0.500047,0.994614 0.909175,1.856025 0.909175,1.914248 0,0.163282 -1.525435,-0.646887 -2.938871,-1.560854 -2.736675,-1.76961 -5.032944,-4.1227 -6.546016,-6.708 -0.836939,-1.430027 -1.026497,-1.58201 -1.447742,-1.160764 -0.289502,0.289502 -0.278423,0.390823 0.13644,1.247712 1.690341,3.491357 5.396531,6.933021 9.879185,9.174059 2.134688,1.067208 2.220817,1.136013 3.379502,2.699785 2.318123,3.128558 5.318839,5.761154 8.411327,7.379453 0.862069,0.451121 1.604134,0.855701 1.649034,0.899067 0.09628,0.09299 -1.04499,0.05904 -1.746997,-0.05197 z M 26.204693,55.765921 c 1.491714,-2.30288 2.686117,-4.20855 2.654228,-4.234824 -0.333054,-0.274394 -1.011618,-0.494179 -1.123519,-0.363903 -0.684744,0.797185 -5.484878,8.550451 -5.389362,8.705 0.06839,0.110663 0.354321,0.174109 0.635398,0.140994 0.429096,-0.05056 0.945973,-0.73164 3.223255,-4.247267 z m -1.835265,-1.067383 c 2.748347,-4.25037 2.762198,-4.277502 2.422284,-4.745017 -0.188028,-0.258613 -0.385952,-0.470637 -0.439831,-0.471166 -0.121436,-0.0012 -5.420093,8.209892 -5.599374,8.677091 -0.143227,0.373242 0.481421,1.218369 0.713605,0.965482 0.07654,-0.08337 1.383033,-2.07524 2.903316,-4.42639 z m -1.524739,-1.554939 c 0.495613,-0.780703 1.361066,-2.137032 1.923229,-3.014063 0.907027,-1.415053 1.00717,-1.674268 0.889385,-2.302116 -0.073,-0.389132 -0.189043,-0.706819 -0.257869,-0.70597 -0.06883,8.5e-4 -0.985167,1.327308 -2.036313,2.947682 -1.803357,2.779935 -1.904182,2.989849 -1.787263,3.721025 0.06815,0.426189 0.178766,0.774443 0.245813,0.773897 0.06705,-5.47e-4 0.527404,-0.639751 1.023018,-1.420455 z m 5.078347,-19.623903 c 6.268382,-9.689165 11.441884,-17.73348 11.496672,-17.876254 0.07694,-0.200499 -0.09773,-0.186449 -0.767341,0.06173 -0.859988,0.318734 -0.949479,0.448804 -11.13897,16.189925 -13.544024,20.923329 -12.042445,18.463962 -11.644279,19.07164 0.182136,0.277974 0.404439,0.429857 0.494008,0.337518 0.08957,-0.09234 5.291528,-8.095388 11.55991,-17.784556 z m -2.276409,-0.392028 c 5.775883,-8.934954 10.46612,-16.280857 10.422748,-16.324229 -0.04337,-0.04337 -0.479214,0.125588 -0.968538,0.375466 -0.847641,0.432857 -1.353956,1.171767 -10.715574,15.638176 -5.404242,8.351118 -9.853767,15.228952 -9.887834,15.284073 -0.08261,0.133664 0.475647,1.451238 0.572211,1.350515 0.04146,-0.04325 4.801104,-7.389046 10.576987,-16.324001 z m -2.286975,-0.356961 c 4.87367,-7.558157 8.823622,-13.7797 8.777672,-13.82565 -0.04595,-0.04595 -0.571604,0.262684 -1.168118,0.685856 -0.995923,0.706516 -1.533215,1.463087 -6.573519,9.256291 -3.018921,4.667788 -5.488947,8.64452 -5.488947,8.837183 0,0.192664 -0.213507,0.511941 -0.474459,0.709506 -0.260953,0.197567 -1.318946,1.680647 -2.351097,3.295737 -1.697735,2.656581 -1.876639,3.025468 -1.876639,3.869514 0,0.513142 0.06613,0.92864 0.146944,0.923327 0.08082,-0.0053 4.134492,-6.193607 9.008163,-13.751764 z m 0.523178,-4.725173 c 1.586657,-2.462887 2.846017,-4.516791 2.798578,-4.56423 -0.15592,-0.155921 -2.101656,2.152864 -3.203985,3.801807 -1.033495,1.545977 -2.9986,5.228537 -3.001774,5.625253 -0.0029,0.362384 0.541653,-0.414816 3.407181,-4.86283 z"
     id="path10" /></svg>
