<svg xmlns="http://www.w3.org/2000/svg" id="svg70" xml:space="preserve" viewBox="9.85 8.2 83 83" y="0px" x="0px" version="1.1" style="max-height: 500px" width="83" height="83"><defs id="defs70"/><g id="g69"><path id="path1" d="M92.744,45.699C90.534,24.705,72.972,8.873,51.893,8.873c-1.443,0-2.908,0.077-4.352,0.229   c-22.552,2.373-38.969,22.65-36.596,45.201c2.208,20.994,19.771,36.826,40.851,36.826c1.443,0,2.907-0.077,4.352-0.229   C78.699,88.526,95.117,68.249,92.744,45.699z M55.938,88.91c-1.375,0.145-2.769,0.218-4.143,0.218c-0.397,0-0.79-0.016-1.185-0.027   c-1.953-0.984-3.249-3.024-3.266-3.052c-0.146-0.234-0.453-0.307-0.688-0.161c-0.234,0.146-0.307,0.454-0.161,0.688   c0.057,0.091,0.84,1.333,2.144,2.417c-4.175-0.333-8.17-1.32-11.882-2.864c1.656-0.458,2.646-1.188,2.705-1.232   c0.219-0.168,0.26-0.481,0.092-0.7c-0.167-0.218-0.48-0.259-0.7-0.094c-0.017,0.013-1.413,1.054-3.677,1.327   C23.143,79.78,14.414,68.159,12.934,54.093C10.677,32.638,26.295,13.347,47.75,11.09c1.375-0.145,2.769-0.218,4.143-0.218   c20.053,0,36.76,15.062,38.863,35.035C93.013,67.362,77.394,86.652,55.938,88.91z"/><path id="path2" d="M44.342,76.068c-2.128-0.181-3.999,1.42-4.183,3.507c-0.187,2.12,1.388,3.997,3.509,4.183   c0.115,0.01,0.229,0.015,0.342,0.015c1.979,0,3.666-1.547,3.839-3.521C48.035,78.131,46.461,76.254,44.342,76.068z M43.756,82.762   c-1.572-0.138-2.738-1.528-2.601-3.099c0.128-1.464,1.378-2.609,2.845-2.609c0.084,0,0.169,0.003,0.254,0.011   c1.57,0.138,2.736,1.528,2.599,3.099C46.717,81.711,45.32,82.903,43.756,82.762z"/><path id="path3" d="M69.984,28.256c0.2,0.032,0.398,0.048,0.594,0.048c1.809,0,3.33-1.291,3.616-3.069c0.156-0.96-0.072-1.925-0.643-2.716   c-0.575-0.797-1.428-1.322-2.401-1.479c-2.035-0.33-3.891,1.049-4.21,3.021C66.619,26.05,67.985,27.933,69.984,28.256z    M67.927,24.222c0.21-1.293,1.316-2.23,2.63-2.23c0.143,0,0.288,0.012,0.435,0.035c0.709,0.115,1.331,0.498,1.75,1.078   c0.414,0.574,0.579,1.273,0.467,1.971c-0.231,1.432-1.575,2.438-3.063,2.193C68.688,27.033,67.694,25.666,67.927,24.222z"/><path id="path4" d="M60.486,41.556l0.211-0.326c-0.035-0.045-0.074-0.086-0.107-0.131C60.57,41.257,60.525,41.406,60.486,41.556z"/><path id="path5" d="M62.123,31.193l-2.781,4.297l-1.146,1.773l-3.863,5.973c0.24,0.23,0.506,0.436,0.805,0.597l3.943-6.099   c0.062,0.045,0.129,0.082,0.188,0.129c-0.016-0.121-0.021-0.244-0.033-0.367l4.711-7.279   C63.289,30.457,62.676,30.787,62.123,31.193z"/><path id="path6" d="M30.73,65.891l11.024-17.042l0.059-0.092L53.33,30.958c-0.201-0.295-0.414-0.578-0.641-0.854L29.865,65.387   C30.137,65.578,30.432,65.738,30.73,65.891z"/><path id="path7" d="M83.412,43.209l1.9-2.938c0.033-0.16,0.078-0.314,0.094-0.479c0.041-0.465-0.012-0.914-0.102-1.348l-3.58,5.531   C82.342,43.827,82.91,43.566,83.412,43.209z"/><path id="path8" d="M80.119,44.116c0.059,0.005,0.115-0.005,0.174-0.002l4.533-7.007c-0.174-0.312-0.389-0.602-0.629-0.869l-4.975,7.691   C79.512,44.016,79.807,44.088,80.119,44.116z"/><path id="path9" d="M76.066,46.733l7.27-11.239c-0.273-0.189-0.568-0.348-0.879-0.48l-7.824,12.094C75.135,47.052,75.619,46.926,76.066,46.733   z"/><path id="path10" d="M72.297,46.8c0.322,0.126,0.664,0.212,1.018,0.268l8.01-12.381c-0.125-0.02-0.244-0.059-0.371-0.068   c-0.262-0.023-0.521-0.02-0.773-0.002L72.297,46.8z"/><path id="path11" d="M71.299,46.269l7.293-11.277c-0.392,0.166-0.746,0.393-1.079,0.648c-0.234,1.635-1.335,2.943-2.798,3.504l-4.186,6.471   C70.762,45.858,71.02,46.076,71.299,46.269z"/><path id="path12" d="M69.816,44.642l3.371-5.213c-0.146,0.002-0.29,0.019-0.439,0.006c-0.232-0.021-0.452-0.074-0.672-0.128l-2.771,4.285   c0.02-0.008,0.041-0.013,0.061-0.021C69.469,43.95,69.627,44.304,69.816,44.642z"/><path id="path13" d="M70.998,38.897c-0.296-0.163-0.562-0.364-0.812-0.587l-3.741,5.784c0.42,0.008,0.832-0.008,1.234-0.067L70.998,38.897z"/><path id="path14" d="M69.424,37.416c-0.211-0.326-0.396-0.67-0.516-1.045l-4.742,7.333c0.326,0.112,0.664,0.204,1.016,0.271L69.424,37.416z"/><path id="path15" d="M68.174,34.019c-0.086-0.008-0.164-0.033-0.248-0.047l-5.668,8.762c0.27,0.192,0.559,0.361,0.855,0.518l5.607-8.67   c0.021-0.199,0.065-0.391,0.111-0.582C68.617,34.029,68.398,34.039,68.174,34.019z"/><path id="path16" d="M60.486,41.556l-1.248,1.931C59.846,43.007,60.285,42.333,60.486,41.556z"/><path id="path17" d="M66.092,32.89l-5.395,8.34c0.211,0.273,0.443,0.529,0.691,0.771l5.46-8.441C66.56,33.378,66.303,33.156,66.092,32.89z"/><path id="path18" d="M57.4,44.251l8.125-12.561c-0.067-0.296-0.104-0.602-0.076-0.92c0.03-0.343,0.128-0.66,0.261-0.957   c-0.055,0.006-0.112,0-0.167,0.008l-9.305,14.383c0.117,0.021,0.227,0.058,0.348,0.068C56.863,44.297,57.133,44.286,57.4,44.251z"/><path id="path19" d="M57,37.035c-0.463-0.012-0.908,0.061-1.324,0.207l-6.694,10.346c0.729-0.371,1.414-0.814,2.048-1.322L57,37.035z"/><path id="path20" d="M54.936,34.464l-9.198,14.223c0.482-0.09,0.957-0.209,1.418-0.354l8.06-12.459C55.152,35.396,55.061,34.925,54.936,34.464z"/><path id="path21" d="M32.836,66.553l6.807-10.523l0.162-0.248l2.339-3.617c0.033-0.178,0.064-0.357,0.08-0.541   c0.041-0.459,0.016-0.907-0.051-1.343L31.797,66.318C32.131,66.424,32.479,66.498,32.836,66.553z"/><path id="path22" d="M44.274,48.872l10.21-15.782c-0.148-0.363-0.32-0.717-0.502-1.062L43.079,48.878C43.481,48.893,43.88,48.896,44.274,48.872   z"/><path id="path23" d="M28.99,64.66l22.914-35.415c-0.24-0.24-0.488-0.467-0.748-0.686L28.311,63.875C28.52,64.152,28.742,64.418,28.99,64.66z"/><path id="path24" d="M34.273,52.579c-0.482,0.249-1,0.435-1.543,0.544l-5.533,8.553c0.115,0.398,0.268,0.777,0.451,1.145L34.273,52.579z"/><path id="path25" d="M37.318,46.031c0.12,0.521,0.169,1.067,0.139,1.627l2.361-3.651c-0.525,0.547-1.189,0.953-1.938,1.154L37.318,46.031z"/><path id="path26" d="M40.972,41.49c-0.038,0.43-0.153,0.832-0.308,1.211l9.589-14.824c-0.273-0.188-0.555-0.365-0.848-0.531L40.922,40.46   C40.975,40.794,41.002,41.136,40.972,41.49z"/><path id="path27" d="M48.396,26.833c-0.309-0.14-0.623-0.266-0.945-0.379l-7.628,11.79c0.245,0.26,0.469,0.537,0.642,0.85L48.396,26.833z"/><path id="path28" d="M26.438,60.775l4.882-7.547c-0.091-0.004-0.18-0.002-0.271-0.01c-0.283-0.024-0.557-0.076-0.824-0.138l-5.283,8.165   C25.477,61.186,25.979,61.02,26.438,60.775z"/><path id="path29" d="M48.118,19.293l1.113-1.722c-0.008-0.387-0.191-0.746-0.512-1.05l-2.394,3.701C47.082,19.933,47.67,19.617,48.118,19.293z"/><path id="path30" d="M43.267,29.001l-5.245,8.109c0.328,0.102,0.631,0.25,0.918,0.423l7.384-11.413c-0.341-0.084-0.684-0.152-1.036-0.207   c0.012,0.16,0.021,0.319,0.007,0.482C45.187,27.627,44.359,28.615,43.267,29.001z"/><path id="path31" d="M28.248,52.22l-5.592,8.644c0.309,0.145,0.641,0.246,0.986,0.314l5.48-8.471C28.816,52.568,28.522,52.407,28.248,52.22z"/><path id="path32" d="M44.482,20.792c0.055-0.014,0.105-0.028,0.158-0.042l3.113-4.812c-0.305-0.117-0.646-0.207-1.02-0.264l-3.543,5.477   C43.607,21.023,44.037,20.902,44.482,20.792z"/><path id="path33" d="M35.471,37.138c0.414-0.139,0.859-0.193,1.316-0.193l5.047-7.804c-0.354-0.05-0.69-0.149-0.992-0.307L35.471,37.138z"/><path id="path34" d="M26.703,50.691l-5.689,8.793c0.199,0.283,0.428,0.543,0.693,0.77l5.667-8.76C27.127,51.246,26.902,50.978,26.703,50.691z"/><path id="path35" d="M30.027,41.635c0.426-0.114,0.867-0.185,1.32-0.201l8.607-13.304c-0.246-0.282-0.437-0.609-0.565-0.967L30.027,41.635z"/><path id="path36" d="M21.819,54.322c0.248,0.363,0.386,0.801,0.37,1.269l3.904-6.035c-0.166-0.41-0.286-0.841-0.357-1.288L21.819,54.322z"/><path id="path37" d="M41.455,21.757l3.973-6.139c-0.162,0.01-0.328,0.022-0.496,0.044c-0.246,0.03-0.514,0.067-0.793,0.107l-4.354,6.729   C40.311,22.236,40.867,21.988,41.455,21.757z"/><path id="path38" d="M28.08,42.571l10.086-15.593c-0.699,0.34-1.359,0.746-1.975,1.211L19.883,53.397c0.12-0.01,0.241-0.016,0.365-0.005   c0.252,0.022,0.487,0.095,0.705,0.195l4.836-7.475C26.096,44.652,26.935,43.41,28.08,42.571z"/><path id="path39" d="M41.47,16.113L17.422,53.285c0.248,0.227,0.506,0.441,0.779,0.639l24.71-38.198C42.442,15.841,41.964,15.97,41.47,16.113z"/><path id="path40" d="M38.225,17.213L15.986,51.59c0.193,0.299,0.404,0.586,0.633,0.861l23.166-35.809   C39.273,16.816,38.752,17.007,38.225,17.213z"/><path id="path41" d="M34.623,18.864L14.936,49.296c0.115,0.402,0.26,0.795,0.434,1.174l21.008-32.477C35.795,18.26,35.209,18.553,34.623,18.864   z"/><path id="path42" d="M30.289,21.645l-10.797,16.69c-0.096,0.357-0.197,0.709-0.287,1.08c-0.234,0.125-0.457,0.27-0.68,0.414l-3.807,5.887   c-0.025,0.173-0.064,0.341-0.08,0.518c-0.043,0.49-0.041,0.974,0,1.447l17.828-27.561C31.734,20.587,31.008,21.094,30.289,21.645z"/><path id="path43" d="M20.936,34.031l6.18-9.556C24.707,26.964,22.553,30.089,20.936,34.031z"/><path id="path44" d="M75.518,57.488l-4.951,7.654c0.217,0.369,0.327,0.805,0.287,1.264c-0.006,0.064-0.024,0.124-0.036,0.188l5.722-8.846   C76.191,57.627,75.85,57.545,75.518,57.488z"/><path id="path45" d="M69.925,67.974c-0.395,0.27-0.876,0.418-1.39,0.374c-0.013-0.001-0.024-0.006-0.037-0.007l-2.869,4.435   c0.158,0.336,0.348,0.654,0.584,0.938L69.925,67.974z"/><path id="path46" d="M65.234,70.559c-0.023,0.254-0.018,0.502,0.002,0.746l2.193-3.391l0.582-0.9c-0.348,0.127-0.673,0.301-0.974,0.51   C66.058,68.202,65.366,69.277,65.234,70.559z"/><path id="path47" d="M69.741,64.34l4.493-6.945c-0.449,0.016-0.885,0.078-1.309,0.184l-4.213,6.513c0.065-0.001,0.129-0.009,0.195-0.003   C69.21,64.114,69.491,64.204,69.741,64.34z"/><path id="path48" d="M71.072,58.367c-1.543,0.969-2.654,2.586-2.92,4.514L71.072,58.367z"/><path id="path49" d="M81.863,65.187l3.775-5.835c0.111-0.598,0.199-1.209,0.254-1.846c0.014-0.125,0.02-0.27,0.02-0.42l-4.891,7.562   C81.331,64.787,81.613,64.967,81.863,65.187z"/><path id="path50" d="M77.41,70.229l-5.01,7.746c0.787-0.557,1.572-1.146,2.328-1.76l3.522-5.444C77.942,70.63,77.66,70.45,77.41,70.229z"/><path id="path51" d="M76.286,68.05l-8.101,12.522c0.604-0.312,1.232-0.666,1.875-1.059l6.607-10.213C76.463,68.92,76.331,68.496,76.286,68.05z"/><path id="path52" d="M85.162,54.328l-6.588,10.184c0.406-0.136,0.845-0.192,1.297-0.161l5.828-9.009C85.58,54.943,85.406,54.586,85.162,54.328z"/><path id="path53" d="M82.033,57.092l2.031-3.141c-0.141,0.02-0.283,0.051-0.441,0.109C82.645,54.426,82.467,55.582,82.033,57.092z"/><path id="path54" d="M79.297,59.48L69.119,75.213l-0.896,1.385l-3.424,5.295c0.115-0.02,0.23-0.039,0.361-0.072   c0.344-0.09,0.723-0.225,1.119-0.377l13.633-21.072C79.75,60.053,79.547,59.754,79.297,59.48z"/><path id="path55" d="M78.438,58.732c-0.271-0.195-0.553-0.371-0.85-0.525L67.066,74.469c0.273,0.189,0.568,0.348,0.887,0.469L78.438,58.732z"/><path id="path56" d="M65.268,78.395c-0.609,0.293-1.104,0.691-1.465,1.121c-0.205,0.24-0.365,0.49-0.477,0.734   c-0.293,0.639-0.248,1.23,0.209,1.518l2.4-3.711C65.721,78.168,65.504,78.281,65.268,78.395z"/><path id="path57" d="M82.793,66.538c0.636-1.087,1.214-2.178,1.68-3.308l-1.864,2.883C82.682,66.249,82.738,66.393,82.793,66.538z"/><path id="path58" d="M78.018,73.209c0.676-0.709,1.281-1.414,1.766-2.092c0.013-0.018,0.024-0.035,0.037-0.053   c-0.139,0.007-0.277,0.015-0.419,0.005L78.018,73.209z"/><path id="path59" d="M40.664,42.701l-0.846,1.306C40.178,43.633,40.463,43.192,40.664,42.701z"/><path id="path60" d="M70.817,66.594l-0.893,1.38C70.385,67.659,70.714,67.173,70.817,66.594z"/><path id="path61" d="M68.861,66.789c-0.111-0.205-0.201-0.422-0.291-0.639l-0.559,0.863C68.287,66.914,68.566,66.832,68.861,66.789z"/><path id="path62" d="M36.845,77.588c-0.081-0.03-8.21-3.138-11.45-10.09c-0.117-0.251-0.414-0.361-0.664-0.242   c-0.25,0.116-0.359,0.414-0.242,0.664c3.416,7.33,11.658,10.475,12.007,10.605c0.058,0.021,0.116,0.031,0.175,0.031   c0.203,0,0.393-0.124,0.469-0.325C37.234,77.973,37.104,77.685,36.845,77.588z"/><path id="path63" d="M41.199,73.604c0.08,0,0.163-0.02,0.24-0.062c0.241-0.133,0.33-0.438,0.197-0.679c-0.026-0.049-1.994-3.687-2.744-8.25   c1.086-1.081,1.816-2.513,1.96-4.141c0.01-0.117,0.01-0.229,0.014-0.342l-2.135,3.302c-0.069-0.623-0.104-1.261-0.113-1.902   l2.068-3.198c-0.1-0.414-0.238-0.816-0.413-1.199l-1.639,2.532c-0.064-0.179-0.226-0.314-0.428-0.331   c-0.283-0.021-0.516,0.182-0.539,0.457c-0.041,0.488-0.056,0.974-0.057,1.456l-3.502,5.411c0.439-0.01,0.869-0.057,1.285-0.143   l2.29-3.542c0.05,0.598,0.114,1.188,0.206,1.76l-0.754,1.165c0.305-0.155,0.592-0.338,0.869-0.533   c0.822,4.401,2.646,7.784,2.754,7.979C40.852,73.51,41.021,73.604,41.199,73.604z"/><path id="path64" d="M68.205,59.02c-0.256-0.107-0.548,0.013-0.654,0.268c-5.583,13.321-17.082,16.365-17.197,16.394   c-0.268,0.068-0.43,0.34-0.363,0.607c0.058,0.227,0.262,0.378,0.484,0.378c0.041,0,0.082-0.005,0.123-0.015   c0.12-0.03,12.092-3.178,17.875-16.978C68.58,59.419,68.46,59.126,68.205,59.02z"/><path id="path65" d="M58.564,82.302c-2.989,1.014-7.219-0.001-7.262-0.012c-0.27-0.066-0.539,0.1-0.604,0.366   c-0.065,0.269,0.099,0.539,0.366,0.604c0.121,0.03,2.05,0.493,4.285,0.493c1.166,0,2.415-0.126,3.535-0.505   c0.262-0.089,0.402-0.372,0.313-0.634C59.11,82.354,58.828,82.216,58.564,82.302z"/><path id="path66" d="M61.064,17.694c2.187,0.136,4.602,1.771,4.626,1.786c0.086,0.059,0.185,0.088,0.281,0.088c0.16,0,0.316-0.076,0.414-0.219   c0.155-0.228,0.097-0.539-0.131-0.694c-0.107-0.073-2.663-1.806-5.128-1.959c-0.307-0.015-0.514,0.193-0.53,0.468   C60.579,17.439,60.789,17.677,61.064,17.694z"/><path id="path67" d="M57.699,24.908c0.057,0,0.115-0.01,0.172-0.029c1.606-0.589,6.077-0.514,6.124-0.513c0.276,0.02,0.504-0.215,0.509-0.491   c0.005-0.275-0.215-0.504-0.491-0.509c-0.189-0.003-4.704-0.078-6.485,0.573c-0.26,0.095-0.393,0.382-0.298,0.641   C57.304,24.783,57.495,24.908,57.699,24.908z"/><path id="path68" d="M79.546,32.409c0.063,0.218,0.263,0.36,0.479,0.36c0.046,0,0.094-0.007,0.141-0.021c0.265-0.077,0.417-0.354,0.339-0.62   c-0.515-1.762-3.298-4.844-3.416-4.975c-0.186-0.203-0.501-0.219-0.706-0.033c-0.204,0.185-0.22,0.501-0.034,0.705   C77.11,28.667,79.171,31.128,79.546,32.409z"/><path id="path69" d="M72.426,37.232c0.055,0.02,0.111,0.029,0.166,0.029c0.206,0,0.399-0.129,0.472-0.334c0.662-1.881-0.052-5.679-0.082-5.84   c-0.052-0.271-0.321-0.445-0.585-0.396c-0.271,0.051-0.449,0.312-0.397,0.584c0.195,1.022,0.597,3.971,0.121,5.32   C72.028,36.855,72.165,37.14,72.426,37.232z"/></g><text id="text69" font-family="'Helvetica Neue', Helvetica, Arial-Unicode, Arial, Sans-serif" font-weight="bold" font-size="5px" fill="#000000" y="115" x="0">Created by mungang kim</text><text id="text70" font-family="'Helvetica Neue', Helvetica, Arial-Unicode, Arial, Sans-serif" font-weight="bold" font-size="5px" fill="#000000" y="120" x="0">from the Noun Project</text><path id="path70" d="m 49.792443,88.437569 c -0.506708,-0.335629 -1.292116,-1.085042 -1.745351,-1.665361 -0.823491,-1.054391 -1.422944,-1.326959 -1.645105,-0.748019 -0.152444,0.397261 0.17875,1.00134 1.103877,2.013415 0.862384,0.943434 0.882047,0.937686 -1.757431,0.513764 -3.02715,-0.486186 -8.6334,-2.103182 -8.33309,-2.403494 0.05559,-0.05559 0.564659,-0.332302 1.131266,-0.614919 0.713773,-0.356021 1.049459,-0.647638 1.092917,-0.949434 0.09594,-0.666274 -0.422808,-0.721203 -1.573635,-0.166634 -0.56986,0.274608 -1.451786,0.601009 -1.959835,0.725335 -0.907731,0.222133 -0.953525,0.209966 -2.644984,-0.702745 C 27.781938,81.375014 23.072629,77.099457 19.473483,71.740223 15.338508,65.583121 13.179314,58.915235 12.896712,51.430251 12.313392,35.980519 20.902182,21.728022 34.928515,14.87001 c 8.821052,-4.312951 19.71423,-5.0343124 29.189028,-1.932938 2.73627,0.895659 7.917863,3.488814 10.072224,5.040696 4.17336,3.006254 7.304643,6.208122 9.993899,10.219179 6.065975,9.047475 8.098466,20.153306 5.62538,30.737926 -3.477827,14.884835 -15.790666,26.631069 -30.835692,29.41671 -2.000911,0.370476 -5.249144,0.696223 -6.942498,0.696223 -1.146434,0 -1.436516,-0.07908 -2.238413,-0.610237 z m -3.801796,-5.131583 c 0.402613,-0.220537 0.975693,-0.752591 1.273511,-1.182342 0.469712,-0.677796 0.541485,-0.969628 0.541485,-2.201693 0,-1.262613 -0.06527,-1.512727 -0.587775,-2.252437 -1.194761,-1.691416 -3.428383,-2.164251 -5.231628,-1.107478 -1.110762,0.650948 -1.701777,1.564841 -1.856426,2.870603 -0.380464,3.212433 2.994925,5.443184 5.860833,3.873347 z m 12.296971,0.191177 c 0.748718,-0.194587 0.881661,-0.302996 0.881661,-0.71895 0,-0.456023 -0.05406,-0.483525 -0.783699,-0.398658 -1.050267,0.122157 -5.220073,0.125516 -6.56348,0.0053 -1.044526,-0.09348 -1.077586,-0.08141 -1.077586,0.393372 0,0.4357 0.119048,0.514781 1.077586,0.715825 1.402665,0.294197 5.338239,0.296099 6.465518,0.0031 z m 7.600103,-1.845821 c 0.513635,-0.272892 2.018888,-2.470029 7.4009,-10.802713 6.573007,-10.176636 6.747909,-10.472691 6.452982,-10.922806 -0.166728,-0.254461 -0.367236,-0.461399 -0.44557,-0.459863 -0.13126,0.0026 -14.363049,21.913364 -14.510243,22.339489 -0.101033,0.292484 0.390826,0.223697 1.101931,-0.154107 z m -1.077968,-1.643513 c 0.623811,-0.982257 1.095227,-1.824896 1.04759,-1.872533 -0.04764,-0.04764 -0.442713,0.09506 -0.877946,0.317096 -1.243492,0.634381 -2.169119,2.080034 -1.891623,2.954348 0.22196,0.699328 0.56792,0.418276 1.721979,-1.398911 z m 4.423137,0.116338 c 0.822856,-0.452006 1.218182,-0.979931 4.208035,-5.619502 2.99969,-4.654833 3.284845,-5.172194 3.134796,-5.687516 -0.09078,-0.311788 -0.241483,-0.582286 -0.334886,-0.601109 -0.13368,-0.02694 -7.188259,10.637645 -7.980375,12.064132 -0.254494,0.458308 -0.101097,0.433699 0.97243,-0.156005 z M 37.107134,78.394739 c 0.375209,-0.4521 0.06484,-0.800015 -1.209001,-1.355268 -3.780065,-1.647682 -7.767275,-5.096628 -9.855664,-8.525168 -0.439576,-0.72166 -0.946799,-1.340667 -1.127163,-1.375571 -0.54614,-0.105687 -0.606391,0.541484 -0.140087,1.504708 1.620835,3.34809 5.907778,7.268065 10.191824,9.319391 1.629444,0.780225 1.819225,0.818527 2.140091,0.431908 z m 37.232313,-1.732878 c 0.438553,-0.334232 3.932497,-5.554757 3.932497,-5.875793 0,-0.07777 -0.186619,-0.241278 -0.414707,-0.363349 -0.320858,-0.171716 -0.471681,-0.162192 -0.666459,0.04209 -0.337759,0.354236 -4.591983,6.967543 -4.748825,7.382179 -0.11796,0.311843 0.166029,0.134473 1.897494,-1.185127 z M 52.065098,76.240986 c 6.485737,-2.441225 12.465584,-8.090073 15.736601,-14.865539 0.760825,-1.575941 0.878489,-1.959781 0.675678,-2.204154 -0.477783,-0.575693 -0.792745,-0.274052 -1.787945,1.712328 -2.365214,4.720875 -5.327919,8.23191 -9.429444,11.174618 -1.574508,1.129659 -4.332946,2.610519 -5.9277,3.18227 -1.175625,0.421486 -1.563477,0.740445 -1.404414,1.154957 0.163582,0.426288 0.696622,0.387759 2.137224,-0.15448 z m 21.236025,-9.332679 c 2.831481,-4.364224 5.152329,-8.031009 5.157445,-8.148409 0.0051,-0.117402 -0.203484,-0.310409 -0.463552,-0.428905 -0.461103,-0.210092 -0.604354,-0.0125 -5.765484,7.952487 -4.731107,7.301348 -5.258176,8.194516 -4.967851,8.418499 0.178631,0.137813 0.452249,0.225979 0.608041,0.195925 0.155791,-0.03005 2.599921,-3.625373 5.431401,-7.989597 z m -31.664998,6.560935 c 0.202466,-0.243958 0.123908,-0.564771 -0.443784,-1.812304 -0.770442,-1.693094 -1.795243,-4.799076 -2.003855,-6.073321 -0.121423,-0.741677 -0.06121,-0.949458 0.539343,-1.861285 0.371812,-0.564524 0.768303,-1.334989 0.881091,-1.712144 0.310212,-1.037337 0.444626,-1.959367 0.285477,-1.958254 -0.07813,5.46e-4 -0.582863,0.683834 -1.121638,1.518417 l -0.979593,1.517423 -0.05994,-0.719575 c -0.0493,-0.591873 0.126796,-1.009114 0.992273,-2.351097 0.94141,-1.459718 1.034811,-1.698573 0.886984,-2.268278 -0.09087,-0.350215 -0.23834,-0.636755 -0.327702,-0.636755 -0.08936,0 -0.481669,0.517138 -0.871796,1.149195 -0.61982,1.004187 -0.772514,1.137114 -1.210122,1.05346 -0.460493,-0.08803 -0.479057,-0.129273 -0.230652,-0.51244 0.148579,-0.229186 1.156426,-1.783279 2.239659,-3.453538 2.003683,-3.08952 2.351276,-3.88306 2.053493,-4.688041 -0.146342,-0.395601 -0.817045,0.551721 -5.381479,7.60096 -2.867864,4.429087 -5.154415,8.086125 -5.081225,8.12675 0.07319,0.04063 0.35349,0.124185 0.622887,0.185686 0.453836,0.103607 0.655297,-0.146295 2.742946,-3.402451 2.226491,-3.472714 2.253833,-3.505296 2.312136,-2.755212 0.05176,0.665964 -0.141997,1.068566 -1.579804,3.282596 -0.901344,1.387945 -1.704552,2.633744 -1.784906,2.768442 -0.105819,0.177383 0.0458,0.244906 0.54992,0.244906 0.657131,0 0.759036,-0.09488 1.823867,-1.698246 l 1.127847,-1.698248 0.0617,0.733601 c 0.03738,0.444359 -0.06536,0.927517 -0.26056,1.225435 -0.362639,0.553456 -0.254014,0.833687 0.182673,0.471269 0.241389,-0.200337 0.321565,-0.103276 0.502929,0.608836 0.519349,2.039205 1.066216,3.679575 1.774061,5.321435 0.890296,2.065058 1.237716,2.4194 1.757767,1.792778 z m 26.62967,-2.681464 c 1.000437,-1.541036 1.992009,-3.066383 2.203492,-3.389659 4.084212,-6.243178 6.152735,-9.621912 5.965609,-9.744257 -0.744483,-0.486746 -1.032535,-0.186828 -3.519935,3.664915 -2.327077,3.603484 -2.452181,3.847559 -2.257853,4.40501 0.171812,0.492861 0.13551,0.70377 -0.220208,1.279332 -0.49949,0.808192 -1.106028,1.275337 -1.661922,1.279981 -0.291154,0.0024 -0.781714,0.605456 -1.836967,2.258103 -1.412433,2.212036 -1.43363,2.264099 -1.11796,2.745872 0.176975,0.270098 0.390396,0.448673 0.474271,0.396836 0.08387,-0.05184 0.971039,-1.355096 1.971473,-2.896133 z m 11.569517,0.381893 c 0.0022,-0.08082 -0.119029,-0.146944 -0.269432,-0.146944 -0.267473,0 -1.497218,1.720896 -1.482334,2.074364 0.0087,0.205907 1.745674,-1.705271 1.751766,-1.92742 z m -13.12571,-1.932943 c 0.778,-1.203901 1.575222,-2.221736 1.782675,-2.275985 0.206402,-0.05398 0.375278,-0.214901 0.375278,-0.35761 0,-0.430435 -0.348284,-0.507586 -0.62335,-0.138086 -0.142071,0.190846 -0.632265,0.589822 -1.089319,0.886611 -1.105613,0.717936 -1.7968,1.802754 -1.944798,3.052366 -0.06583,0.555804 -0.07203,1.010553 -0.01378,1.010553 0.05825,0 0.73923,-0.980032 1.513297,-2.177849 z m 17.058429,-4.307943 c 0.439046,-0.873219 0.762249,-1.623687 0.718229,-1.667707 -0.128004,-0.128006 -1.903972,2.632196 -1.903972,2.959143 0,0.675712 0.434755,0.202203 1.185743,-1.291436 z M 42.072855,48.579961 c 6.137129,-9.4776 11.204712,-17.34549 11.261293,-17.484203 0.05658,-0.138711 -0.05622,-0.427995 -0.250661,-0.642852 -0.286107,-0.316147 -0.399637,-0.34278 -0.595266,-0.139648 -0.37645,0.390888 -22.609694,34.840872 -22.609694,35.033286 0,0.212678 0.624087,0.587833 0.860823,0.517461 0.0963,-0.02863 5.196375,-7.806446 11.333505,-17.284044 z m 43.788616,9.61988 c 0.06798,-0.80449 0.03595,-1.122739 -0.09962,-0.98981 -0.249998,0.245134 -4.539625,6.893543 -4.6744,7.244763 -0.05438,0.141726 0.102265,0.398574 0.348111,0.570772 0.443837,0.310874 0.4607,0.292052 2.386356,-2.663452 1.800839,-2.763936 1.946517,-3.061232 2.039553,-4.162273 z M 40.650823,46.853895 C 51.573607,29.970322 52.026804,29.233344 51.705039,28.877799 c -0.184535,-0.20391 -0.403142,-0.370746 -0.485793,-0.370746 -0.148607,0 -22.629552,34.627202 -22.844346,35.186946 -0.129042,0.336279 0.521422,1.142551 0.739651,0.916822 0.0806,-0.08337 5.271918,-8.073981 11.536272,-17.756926 z m 39.414391,17.3452 c 0.484232,-0.498568 5.650611,-8.740774 5.64564,-9.006793 -0.0034,-0.183352 -0.130229,-0.497059 -0.281781,-0.697128 -0.25596,-0.337897 -0.336918,-0.268254 -1.138752,0.979624 -0.474759,0.738862 -1.917656,2.974457 -3.206438,4.967992 -1.288781,1.993534 -2.417359,3.747018 -2.50795,3.896632 -0.134466,0.222075 -0.0246,0.246258 0.59833,0.131697 0.419673,-0.07718 0.8206,-0.199589 0.890951,-0.272024 z M 72.137428,60.84606 c 1.214653,-1.878256 2.170188,-3.453282 2.123413,-3.500057 -0.04678,-0.04678 -0.387473,-0.02831 -0.757105,0.04103 -0.615082,0.11539 -0.848401,0.399833 -2.752082,3.355141 -1.144013,1.775983 -2.080024,3.266275 -2.080024,3.311757 0,0.117532 0.632288,0.271489 0.971538,0.236562 0.157191,-0.01618 1.279608,-1.56618 2.49426,-3.444436 z m -2.452767,-0.109383 c 0.692224,-1.077586 1.325756,-2.069455 1.407853,-2.204153 0.362529,-0.594822 -0.371695,-0.162216 -1.243133,0.732456 -0.895615,0.919495 -1.765525,2.632918 -1.765525,3.477479 0,0.444306 0.137925,0.271489 1.600805,-2.005782 z m -38.606335,-2.99074 c 1.791357,-2.773198 3.23264,-5.070328 3.202852,-5.104736 -0.02979,-0.03441 -0.41021,0.04411 -0.845386,0.174496 -0.749015,0.224411 -0.938198,0.46424 -3.545721,4.49495 -1.51497,2.341839 -2.754491,4.307439 -2.754491,4.367999 0,0.283729 0.398983,1.11492 0.533944,1.112353 0.08349,-0.0016 1.617447,-2.271867 3.408802,-5.045062 z m -4.546062,-0.823762 c 2.596162,-4.010365 2.705182,-4.218858 2.339826,-4.474763 -0.210766,-0.147626 -0.48933,-0.227271 -0.61903,-0.176989 -0.18041,0.06994 -4.699392,6.895964 -5.522074,8.341215 -0.180744,0.317523 0.235331,0.639283 0.733188,0.566992 0.209029,-0.03035 1.418508,-1.708301 3.06809,-4.256455 z m -0.207996,3.961446 c 0.224206,-0.188578 1.463301,-1.973942 2.753545,-3.967477 2.423851,-3.745051 2.462918,-3.856017 1.374729,-3.904724 -0.191783,-0.0086 -1.280152,1.489422 -2.88989,3.977583 -1.420235,2.195245 -2.582244,4.046734 -2.582244,4.11442 0,0.262229 0.956823,0.105731 1.34386,-0.219802 z m -1.615386,-5.055753 c 2.688356,-4.163242 2.7608,-4.303003 2.451515,-4.72951 -0.175287,-0.24172 -0.373348,-0.442263 -0.440135,-0.44565 -0.06679,-0.0034 -1.414117,1.989592 -2.994065,4.42884 -2.748646,4.243573 -2.858185,4.450964 -2.537855,4.804923 0.184129,0.20346 0.428277,0.338762 0.542551,0.30067 0.114274,-0.03809 1.454369,-1.999762 2.977989,-4.359273 z m 58.436479,-0.245572 c 1.101808,-1.678258 1.168589,-1.846624 0.661457,-1.667641 -0.676179,0.238644 -1.236512,0.937782 -1.521957,1.898979 -0.519886,1.750651 -0.423744,1.724803 0.8605,-0.231338 z M 24.367507,52.456221 c 1.65154,-2.556666 1.794171,-2.853441 1.675466,-3.48619 -0.07136,-0.380395 -0.219853,-0.661593 -0.329979,-0.624884 -0.110126,0.03671 -1.05745,1.385078 -2.105164,2.996377 -1.434778,2.206572 -1.863145,3.01108 -1.735615,3.259624 0.09313,0.181493 0.169321,0.531009 0.169321,0.776701 0,0.384827 0.03607,0.406969 0.260377,0.159825 0.143207,-0.15779 1.072725,-1.544443 2.065594,-3.081453 z m 6.314577,-17.591615 c 6.766707,-10.447085 12.307671,-19.055227 12.313253,-19.129205 0.0056,-0.07398 -0.360235,-0.02727 -0.812927,0.103797 l -0.823076,0.238303 -12.016777,18.584098 c -11.522041,17.818983 -12.00297,18.599353 -11.681429,18.954653 0.184442,0.203805 0.421411,0.341867 0.5266,0.306804 0.105188,-0.03506 5.727649,-8.611365 12.494356,-19.05845 z m -7.573693,15.602449 c 2.097074,-3.210623 2.53712,-3.961303 3.240056,-5.527259 0.223828,-0.49863 0.734956,-1.239959 1.13584,-1.647398 0.677568,-0.688648 10.855703,-16.178878 10.721661,-16.31743 -0.07647,-0.07904 -1.466845,0.656105 -1.870262,0.988879 -0.338739,0.279421 -16.449322,25.139782 -16.449322,25.383069 0,0.08534 0.265698,0.175404 0.59044,0.200147 0.559844,0.04266 0.696217,-0.116951 2.631587,-3.080008 z m 5.574773,-16.450012 c 6.161687,-9.523383 11.169832,-17.348479 11.129209,-17.389101 -0.04062,-0.04062 -0.418825,0.044 -0.840451,0.188049 -0.735492,0.251282 -1.214377,0.952791 -11.803763,17.291141 -6.070443,9.366077 -11.083566,17.140119 -11.140272,17.27565 -0.05671,0.135531 0.0467,0.475051 0.229797,0.754489 l 0.3329,0.50807 0.444757,-0.656526 c 0.244616,-0.36109 5.486136,-8.448386 11.647823,-17.971772 z m -2.858762,0.498899 c 5.670801,-8.764075 10.369368,-16.087968 10.44126,-16.275317 0.123004,-0.32054 0.08583,-0.321956 -0.63017,-0.024 -0.418486,0.174148 -0.866523,0.422708 -0.995637,0.552355 -0.129114,0.129647 -4.642604,7.047818 -10.029976,15.373712 -9.386951,14.507032 -9.786722,15.162373 -9.591299,15.722962 0.112157,0.321736 0.269476,0.584973 0.349599,0.584973 0.08012,0 4.785422,-7.170607 10.456223,-15.934685 z m 23.703092,6.449277 c 4.8528,-7.501974 5.049189,-7.84265 4.828358,-8.375783 -0.126606,-0.305655 -0.294338,-0.555737 -0.372737,-0.555737 -0.109584,0 -5.165537,7.72461 -10.748877,16.422404 -0.288921,0.450084 -0.284303,0.453922 0.471463,0.39185 l 0.763241,-0.06269 z m -2.287504,7.459707 c 0.01217,-0.01733 1.818323,-2.808743 4.013684,-6.203139 3.456308,-5.344036 3.984935,-6.262702 3.942139,-6.850788 -0.02718,-0.373536 -0.115452,-0.745184 -0.196154,-0.825885 -0.130976,-0.130976 -9.251226,13.72115 -9.251226,14.051058 0,0.107576 1.409408,-0.05424 1.491557,-0.171246 z M 23.73225,33.832328 c 4.863082,-7.508642 8.806764,-13.690565 8.763739,-13.737605 -0.04302,-0.04704 -0.573307,0.264542 -1.178406,0.692407 -1.015822,0.718285 -1.518445,1.423404 -6.55512,9.196029 -3.000217,4.629952 -5.45695,8.57297 -5.459407,8.762258 -0.0025,0.189291 -0.223277,0.534418 -0.490712,0.76695 -0.267435,0.232531 -1.325429,1.718278 -2.351097,3.301655 -1.760102,2.717165 -1.864852,2.937293 -1.864852,3.918919 0,0.572026 0.06613,0.975115 0.146944,0.895756 0.08082,-0.07936 4.125829,-6.287727 8.988911,-13.796369 z m 15.424398,11.461589 c 0.846502,-1.312516 3.689861,-5.720361 6.318573,-9.79521 2.628715,-4.074849 4.779481,-7.488186 4.779481,-7.585192 0,-0.271225 -0.804598,-0.639605 -0.989898,-0.453217 -0.09027,0.0908 -2.019224,3.030494 -4.286561,6.532649 -3.600559,5.561465 -4.122779,6.46641 -4.125181,7.148442 -0.0041,1.165331 -0.852327,2.689622 -1.812102,3.256413 -1.443507,0.852459 -1.717292,1.222547 -1.717292,2.32135 0,0.543691 0.06612,0.98237 0.146943,0.974843 0.08082,-0.0075 0.839536,-1.087561 1.686037,-2.400078 z m 11.617519,1.293859 c 0.484869,-0.402077 6.385328,-9.477915 6.249904,-9.613338 -0.04931,-0.04931 -0.388334,-0.03363 -0.753383,0.03486 -0.617304,0.115807 -0.895455,0.482811 -3.976613,5.246886 -1.822086,2.817304 -3.344498,5.2031 -3.383137,5.301768 -0.08705,0.2223 1.289681,-0.494558 1.863229,-0.970175 z m 26.616115,-5.574684 c 2.155173,-3.348308 3.947884,-6.165353 3.983803,-6.260102 0.03592,-0.09475 -0.241352,-0.172269 -0.616158,-0.172269 -0.678875,0 -0.696495,0.02322 -4.632427,6.10375 -2.942694,4.546103 -3.885433,6.145308 -3.694187,6.266593 0.772041,0.489614 0.989014,0.229806 4.958969,-5.937972 z m -1.720302,5.984884 c 0.303684,-0.08141 1.504072,-1.769414 3.979115,-5.595482 1.949334,-3.013397 3.589925,-5.597954 3.645762,-5.743462 0.156409,-0.407594 -0.691946,-0.793671 -1.012285,-0.460682 -0.193601,0.201248 -6.841005,10.402588 -7.608746,11.67665 -0.162063,0.26894 0.258157,0.320817 0.996154,0.122976 z m -0.650243,-6.281185 c 2.001035,-3.090678 3.606862,-5.650798 3.568506,-5.689154 -0.03836,-0.03836 -0.302017,0.0361 -0.585913,0.165447 -0.341248,0.155484 -0.580778,0.475102 -0.706807,0.943137 -0.258748,0.96092 -1.021714,1.950058 -1.967192,2.550342 -0.595108,0.377834 -1.284285,1.27397 -2.849134,3.704726 -1.972167,3.063464 -2.049254,3.222792 -1.729942,3.575627 0.183813,0.203109 0.401262,0.369291 0.483221,0.369291 0.08196,0 1.786229,-2.528736 3.787261,-5.619416 z m -3.503058,1.498632 c 0.913672,-1.404361 1.661221,-2.638687 1.661221,-2.742947 0,-0.104257 -0.28654,-0.185574 -0.636756,-0.180703 -0.676383,0.0094 -0.523687,-0.176861 -2.729874,3.330155 -0.497839,0.791381 -0.535584,0.959565 -0.340766,1.518417 0.120495,0.345656 0.256404,0.628464 0.302018,0.628464 0.04561,0 0.830485,-1.149023 1.744157,-2.553386 z M 61.469716,38.156348 c 3.789577,-5.869626 4.022347,-6.284175 4.125456,-7.347179 0.0601,-0.619612 0.04952,-1.121742 -0.02351,-1.115844 -0.121637,0.0098 -9.256998,14.096936 -9.406559,14.505311 -0.03592,0.09808 0.239283,0.178323 0.611563,0.178323 0.673339,0 0.697843,-0.03248 4.693053,-6.220611 z m 7.891791,3.471301 c 0.913671,-1.404361 1.66122,-2.635586 1.66122,-2.736052 0,-0.100468 -0.186618,-0.282543 -0.414706,-0.404614 -0.321083,-0.171838 -0.468421,-0.162336 -0.652627,0.04209 -0.194095,0.2154 -2.990372,4.518388 -3.51375,5.407058 -0.10435,0.177178 0.04974,0.244905 0.557202,0.244905 0.683775,0 0.743272,-0.0643 2.362661,-2.553385 z m 13.314494,-0.983315 c 2.274716,-3.514207 2.287189,-3.539885 1.961203,-4.037402 -0.239972,-0.366244 -0.38635,-0.442426 -0.54509,-0.283686 -0.119361,0.119362 -1.287469,1.870067 -2.595799,3.890461 -1.524458,2.35415 -2.301938,3.725137 -2.16482,3.817384 0.728378,0.490022 1.038137,0.176348 3.344506,-3.386757 z M 59.641062,37.093413 c 2.273427,-3.521036 4.19192,-6.55412 4.263321,-6.740186 0.103084,-0.268631 -0.0805,-0.221212 -0.891425,0.230255 -0.973438,0.541941 -1.204335,0.852743 -4.93269,6.639731 l -3.911446,6.071174 0.44302,0.336015 c 0.343777,0.260742 0.49372,0.283244 0.669367,0.100454 0.124492,-0.129557 2.086426,-3.116407 4.359853,-6.637443 z m 7.760887,3.657561 c 2.027651,-3.123043 2.091437,-3.254277 1.856885,-3.820533 -0.133591,-0.322518 -0.298323,-0.585741 -0.366068,-0.584937 -0.24546,0.0029 -4.754369,7.241545 -4.633023,7.437889 0.06857,0.110945 0.331164,0.201717 0.583549,0.201717 0.377887,0 0.82949,-0.570825 2.558657,-3.234136 z m 15.428864,2.922423 c 0.941556,-0.448997 2.690347,-3.265395 2.690347,-4.332756 0,-0.426864 -0.05923,-0.835343 -0.131617,-0.907733 -0.111622,-0.111623 -1.1989,1.463277 -3.325891,4.817484 -0.532032,0.839003 -0.334081,0.94815 0.767161,0.423005 z m -22.571375,-1.37962 c 0.411346,-0.849729 0.435435,-0.865599 0.805462,-0.530728 0.247812,0.224267 0.428723,0.272974 0.516419,0.13904 0.07424,-0.113386 1.316769,-2.033502 2.761175,-4.266922 l 2.626191,-4.060768 -0.419861,-0.419863 c -0.25775,-0.257749 -0.483381,-0.347156 -0.584373,-0.231556 -0.09048,0.103568 -1.298661,1.951628 -2.684849,4.106801 -1.386185,2.155172 -2.591546,3.947884 -2.678575,3.983802 -0.08703,0.03592 -0.158237,0.152285 -0.158237,0.258588 0,0.106303 -0.264498,0.577713 -0.587774,1.047578 -0.323276,0.469865 -0.587775,0.959418 -0.587775,1.087896 0,0.424959 0.541597,-0.183054 0.992197,-1.113868 z m 5.749277,-3.306978 c 1.572363,-2.425794 2.85884,-4.531503 2.85884,-4.679354 0,-0.147849 -0.220288,-0.310929 -0.489528,-0.362396 -0.450744,-0.08617 -0.716464,0.256532 -3.353991,4.325633 l -2.864465,4.419214 0.436826,0.353719 c 0.240255,0.194547 0.463072,0.35372 0.495153,0.35372 0.03208,0 1.344804,-1.984741 2.917165,-4.410536 z m -34.301306,2.010458 c 0.262543,-0.350215 2.255622,-3.387641 4.429066,-6.749833 l 3.951715,-6.11308 -0.334908,-0.511133 c -0.272835,-0.416399 -0.379556,-0.463564 -0.575806,-0.254476 -0.132494,0.141161 -2.115192,3.16614 -4.405997,6.722174 -2.290803,3.556035 -4.334869,6.707974 -4.542366,7.00431 l -0.377269,0.538794 h 0.689107 c 0.54892,0 0.786217,-0.129538 1.166458,-0.636756 z m 12.848,-8.015025 c 2.173686,-3.357618 3.880516,-6.176401 3.792955,-6.263962 -0.08756,-0.08756 -0.351228,-0.183778 -0.585927,-0.213815 -0.362572,-0.0464 -0.998787,0.828476 -4.231984,5.819524 -3.637052,5.614473 -3.792389,5.893782 -3.514054,6.318574 0.160164,0.244442 0.357727,0.444438 0.43903,0.444438 0.0813,0 1.926293,-2.747142 4.09998,-6.104759 z m -1.816108,-1.112418 c 1.978297,-3.0535 3.596906,-5.632359 3.596906,-5.7308 0,-0.09844 -0.125039,-0.178983 -0.277863,-0.178983 -0.152825,0 -0.417323,-0.05352 -0.587774,-0.118924 -0.238276,-0.09143 -0.309912,0.01117 -0.309912,0.443888 0,0.810685 -0.591087,1.795005 -1.435791,2.390982 -0.5048,0.356159 -1.519806,1.734895 -3.265214,4.435308 -2.286671,3.537831 -2.500525,3.942837 -2.201383,4.169064 0.182232,0.137813 0.455707,0.225979 0.607725,0.195925 0.152018,-0.03005 1.895006,-2.552961 3.873306,-5.60646 z m 30.463832,4.915061 c 0.224302,-0.571523 0.12508,-5.158658 -0.125022,-5.779781 -0.07593,-0.188578 -0.336937,-0.342868 -0.58001,-0.342868 h -0.441949 l 0.06363,3.28174 c 0.035,1.804956 0.06697,3.303781 0.07106,3.330721 0.0041,0.02694 0.185947,0.04898 0.404131,0.04898 0.250883,0 0.474425,-0.198045 0.608158,-0.538793 z M 39.357998,33.191716 c 1.409829,-2.193448 2.44775,-3.998126 2.351097,-4.087951 -0.09517,-0.08845 -0.349377,-0.211413 -0.564894,-0.273249 -0.331321,-0.09506 -0.694495,0.359581 -2.351098,2.94324 -1.077586,1.680617 -2.292008,3.57279 -2.698718,4.204827 l -0.739469,1.14916 0.739469,-0.0044 0.739471,-0.0044 z M 24.200803,29.186462 c 1.641606,-2.537288 2.937118,-4.660871 2.878916,-4.719073 -0.321712,-0.321713 -3.843747,4.588632 -5.12475,7.144817 -1.82653,3.644761 -1.345776,3.125496 2.245834,-2.425744 z m 56.3785,3.141124 c 0.131788,-0.952341 -3.190915,-5.457615 -3.945322,-5.349486 -0.72124,0.103376 -0.564582,0.619096 0.645245,2.124175 0.646354,0.804094 1.450602,1.974042 1.787218,2.599886 0.490329,0.911628 0.696201,1.125903 1.035331,1.077586 0.248276,-0.03537 0.445725,-0.222333 0.477528,-0.452161 z M 72.506879,27.82305 c 2.79403,-1.63741 2.205637,-5.925852 -0.928856,-6.769883 -2.460893,-0.66265 -4.725693,1.076352 -4.725693,3.628569 0,1.473008 0.924137,2.898121 2.21115,3.409814 0.957674,0.380755 2.546998,0.256827 3.443399,-0.2685 z m -10.88854,-3.298436 c 2.701784,-0.218682 2.84393,-0.251192 2.902609,-0.663849 0.09176,-0.64529 -0.61327,-0.738789 -3.68583,-0.488801 -2.968929,0.241557 -3.723049,0.440701 -3.723049,0.983166 0,0.550531 0.225874,0.672637 0.979624,0.529578 0.377155,-0.07158 1.964146,-0.233625 3.526646,-0.360094 z M 41.340333,21.923537 c 0.152363,-0.06403 3.272639,-4.72095 4.074967,-6.081775 0.119927,-0.203408 -0.0079,-0.265743 -0.54509,-0.265743 -0.692927,0 -0.730085,0.04327 -2.948609,3.434111 -1.23576,1.888761 -2.246836,3.476935 -2.246836,3.529275 0,0.05234 0.330623,-0.04627 0.734718,-0.219144 0.404095,-0.17287 0.822978,-0.351396 0.93085,-0.396724 z m 2.801374,-0.92975 c 0.521295,-0.188902 0.949878,-0.707435 2.214318,-2.67906 l 1.567907,-2.444821 -0.601287,-0.176247 c -0.330709,-0.09694 -0.632026,-0.141019 -0.669594,-0.09796 -0.288122,0.330221 -3.45164,5.368899 -3.45164,5.497583 0,0.206604 0.135007,0.192319 0.940296,-0.09949 z m 3.171647,-1.10616 c 0.810496,-0.413484 1.961724,-1.878929 1.961724,-2.497158 0,-0.202445 -0.121087,-0.53368 -0.269083,-0.736076 -0.248556,-0.33992 -0.354831,-0.235073 -1.393113,1.374396 -1.597284,2.475993 -1.60517,2.524927 -0.299528,1.858838 z m 19.166411,-0.727768 c 0.07417,-0.518839 -0.966895,-1.235457 -2.780041,-1.913648 -1.695827,-0.63431 -2.739975,-0.783504 -3.030815,-0.433063 -0.41675,0.502153 -0.0478,0.863597 1.115051,1.092375 0.616583,0.121305 1.779343,0.566288 2.58391,0.988851 1.619503,0.85057 2.021043,0.901047 2.111895,0.265485 z" style="fill:#ffffff;stroke-width:0.195925"/><path id="path71" d="m 42.473273,82.141458 c -1.828176,-1.290175 -1.478534,-3.956266 0.624154,-4.75929 3.039454,-1.160778 5.06029,3.027859 2.329435,4.828278 -0.792578,0.522537 -2.160678,0.490581 -2.953589,-0.06899 z" style="fill:#ffffff;stroke-width:0.195925"/><path id="path72" d="m 68.844505,26.374931 c -0.651797,-0.651797 -0.760544,-0.883108 -0.759917,-1.616379 0.0021,-2.397915 2.564789,-3.5214 4.231243,-1.854947 1.666453,1.666454 0.542968,4.22919 -1.854947,4.231243 -0.733272,6.27e-4 -0.964582,-0.10812 -1.616379,-0.759917 z" style="fill:#ffffff;stroke-width:0.195925"/></svg>