<svg xmlns="http://www.w3.org/2000/svg" xmlns:xlink="http://www.w3.org/1999/xlink" version="1.1" x="0px" y="0px" viewBox="0 0 100 125" enable-background="new 0 0 100 100" xml:space="preserve"><g><path d="M90.899,45.384C88.689,24.39,71.127,8.558,50.048,8.558c-1.443,0-2.908,0.077-4.352,0.229   C23.145,11.161,6.728,31.437,9.101,53.988c2.208,20.994,19.771,36.826,40.851,36.826c1.443,0,2.907-0.078,4.352-0.23   C76.854,88.213,93.272,67.936,90.899,45.384z M66.391,23.029c0.459-0.816,1.331-1.351,2.321-1.351c0.143,0,0.288,0.012,0.435,0.035   c0.709,0.114,1.331,0.497,1.75,1.078c0.414,0.573,0.579,1.273,0.467,1.97c-0.231,1.43-1.572,2.436-3.059,2.195   C67.729,25.589,67.088,24.279,66.391,23.029z M54.094,88.596c-1.063,0.111-2.136,0.168-3.204,0.193   c6.682-2.705,13.016-10.785,16.987-20.816l0.203-0.312c-0.034,0.023-0.071,0.039-0.106,0.061c0.319-0.818,0.621-1.65,0.908-2.492   c0.094,0.273,0.153,0.559,0.127,0.863c-0.006,0.064-0.024,0.125-0.036,0.188l5.722-8.846c-0.348-0.121-0.689-0.203-1.021-0.26   l-4.358,6.738c0.383-1.211,0.729-2.439,1.039-3.684l2.036-3.148c-0.449,0.016-0.885,0.078-1.309,0.184l-0.089,0.139   c0.484-2.447,0.818-4.934,0.978-7.422c0.089-1.387,0.118-2.774,0.102-4.156l7.408-11.45c-0.125-0.021-0.244-0.059-0.371-0.069   c-0.262-0.023-0.521-0.019-0.773-0.001l-6.313,9.757c-0.028-0.633-0.067-1.264-0.118-1.893l4.844-7.489   c-0.392,0.165-0.746,0.393-1.079,0.647c-0.234,1.636-1.335,2.944-2.798,3.505l-1.116,1.725c-0.145-1.312-0.34-2.609-0.577-3.887   c0.011-0.021,0.034-0.032,0.042-0.056c0.662-1.88-0.052-5.679-0.082-5.839c-0.052-0.271-0.321-0.446-0.585-0.397   c-0.271,0.052-0.449,0.313-0.397,0.585c0.094,0.492,0.234,1.433,0.303,2.425c-0.477-1.864-1.06-3.667-1.735-5.396   c0.004,0,0.008,0.001,0.012,0.001c1.809,0,3.33-1.291,3.616-3.07c0.156-0.96-0.072-1.924-0.643-2.715   c-0.575-0.797-1.428-1.322-2.401-1.479c-1.381-0.223-2.667,0.351-3.458,1.353c-0.607-1.014-1.258-1.979-1.946-2.895   c0.072,0.038,0.148,0.07,0.226,0.07c0.16,0,0.316-0.076,0.414-0.218c0.155-0.229,0.097-0.539-0.131-0.695   c-0.062-0.042-0.943-0.638-2.15-1.163c-2.719-3.025-5.955-5.294-9.642-6.526c18.893,1.224,34.28,15.829,36.293,34.942   C91.168,67.049,75.549,86.338,54.094,88.596z"/><path d="M81.567,42.895l1.9-2.938c0.033-0.16,0.078-0.314,0.094-0.479c0.041-0.465-0.012-0.913-0.102-1.348l-3.58,5.531   C80.497,43.512,81.065,43.251,81.567,42.895z"/><path d="M78.274,43.801c0.059,0.005,0.115-0.005,0.174-0.002l4.533-7.006c-0.174-0.313-0.389-0.603-0.629-0.87l-4.975,7.691   C77.667,43.702,77.962,43.774,78.274,43.801z"/><path d="M80.612,34.699l-7.824,12.094c0.502-0.055,0.986-0.181,1.434-0.374l7.27-11.238C81.218,34.991,80.923,34.832,80.612,34.699   z"/><path d="M80.019,64.873l3.775-5.836c0.111-0.598,0.199-1.209,0.254-1.846c0.014-0.125,0.02-0.27,0.02-0.42l-4.891,7.562   C79.486,64.473,79.769,64.652,80.019,64.873z"/><path d="M75.565,69.914l-5.01,7.746c0.787-0.557,1.572-1.146,2.328-1.76l3.522-5.443C76.098,70.316,75.815,70.137,75.565,69.914z"/><path d="M74.441,67.736l-8.101,12.521c0.604-0.312,1.232-0.666,1.875-1.059l6.607-10.213   C74.618,68.605,74.486,68.182,74.441,67.736z"/><path d="M83.317,54.014l-6.588,10.184c0.406-0.135,0.845-0.191,1.297-0.16l5.828-9.01C83.735,54.629,83.562,54.271,83.317,54.014z"/><path d="M80.188,56.777l2.031-3.141c-0.141,0.02-0.283,0.051-0.441,0.109C80.8,54.111,80.622,55.268,80.188,56.777z"/><path d="M77.452,59.166L67.274,74.898l-0.896,1.385l-3.424,5.295c0.115-0.02,0.23-0.039,0.361-0.072   c0.344-0.09,0.723-0.225,1.119-0.377l13.633-21.072C77.905,59.738,77.702,59.439,77.452,59.166z"/><path d="M76.593,58.418c-0.271-0.195-0.553-0.371-0.85-0.525L65.222,74.154c0.273,0.189,0.568,0.348,0.887,0.469L76.593,58.418z"/><path d="M63.423,78.08c-0.609,0.293-1.104,0.691-1.465,1.121c-0.205,0.24-0.365,0.49-0.477,0.734   c-0.293,0.639-0.248,1.23,0.209,1.518l2.4-3.711C63.876,77.854,63.659,77.967,63.423,78.08z"/><path d="M80.948,66.225c0.636-1.088,1.214-2.178,1.68-3.309l-1.864,2.883C80.837,65.936,80.894,66.078,80.948,66.225z"/><path d="M76.173,72.895c0.676-0.709,1.281-1.414,1.766-2.092c0.013-0.018,0.024-0.035,0.037-0.053   c-0.139,0.008-0.277,0.016-0.419,0.006L76.173,72.895z"/><path d="M68.973,66.279L68.08,67.66C68.54,67.346,68.869,66.859,68.973,66.279z"/><path d="M75.244,26.84c-0.186-0.204-0.501-0.219-0.706-0.034c-0.204,0.185-0.22,0.501-0.034,0.706   c0.762,0.84,2.822,3.303,3.197,4.582c0.063,0.219,0.263,0.36,0.479,0.36c0.046,0,0.094-0.007,0.141-0.021   c0.265-0.077,0.417-0.354,0.339-0.619C78.146,30.053,75.362,26.971,75.244,26.84z"/></g><text x="0" y="115" fill="#000000" font-size="5px" font-weight="bold" font-family="'Helvetica Neue', Helvetica, Arial-Unicode, Arial, Sans-serif">Created by mungang kim</text><text x="0" y="120" fill="#000000" font-size="5px" font-weight="bold" font-family="'Helvetica Neue', Helvetica, Arial-Unicode, Arial, Sans-serif">from the Noun Project</text></svg>