<svg xmlns="http://www.w3.org/2000/svg" id="svg17" xml:space="preserve" viewBox="8.25 8.2 83.5 83.5" y="0px" x="0px" version="1.1" style="max-height: 500px" width="83.5" height="83.5"><defs id="defs17"/><g id="g16"><path id="path1" d="M90.899,45.384C88.689,24.39,71.127,8.558,50.048,8.558c-1.443,0-2.908,0.077-4.352,0.229   C23.145,11.161,6.728,31.437,9.101,53.988c2.208,20.994,19.771,36.826,40.851,36.826c1.443,0,2.907-0.078,4.352-0.23   C76.854,88.213,93.272,67.936,90.899,45.384z M66.391,23.029c0.459-0.816,1.331-1.351,2.321-1.351c0.143,0,0.288,0.012,0.435,0.035   c0.709,0.114,1.331,0.497,1.75,1.078c0.414,0.573,0.579,1.273,0.467,1.97c-0.231,1.43-1.572,2.436-3.059,2.195   C67.729,25.589,67.088,24.279,66.391,23.029z M54.094,88.596c-1.063,0.111-2.136,0.168-3.204,0.193   c6.682-2.705,13.016-10.785,16.987-20.816l0.203-0.312c-0.034,0.023-0.071,0.039-0.106,0.061c0.319-0.818,0.621-1.65,0.908-2.492   c0.094,0.273,0.153,0.559,0.127,0.863c-0.006,0.064-0.024,0.125-0.036,0.188l5.722-8.846c-0.348-0.121-0.689-0.203-1.021-0.26   l-4.358,6.738c0.383-1.211,0.729-2.439,1.039-3.684l2.036-3.148c-0.449,0.016-0.885,0.078-1.309,0.184l-0.089,0.139   c0.484-2.447,0.818-4.934,0.978-7.422c0.089-1.387,0.118-2.774,0.102-4.156l7.408-11.45c-0.125-0.021-0.244-0.059-0.371-0.069   c-0.262-0.023-0.521-0.019-0.773-0.001l-6.313,9.757c-0.028-0.633-0.067-1.264-0.118-1.893l4.844-7.489   c-0.392,0.165-0.746,0.393-1.079,0.647c-0.234,1.636-1.335,2.944-2.798,3.505l-1.116,1.725c-0.145-1.312-0.34-2.609-0.577-3.887   c0.011-0.021,0.034-0.032,0.042-0.056c0.662-1.88-0.052-5.679-0.082-5.839c-0.052-0.271-0.321-0.446-0.585-0.397   c-0.271,0.052-0.449,0.313-0.397,0.585c0.094,0.492,0.234,1.433,0.303,2.425c-0.477-1.864-1.06-3.667-1.735-5.396   c0.004,0,0.008,0.001,0.012,0.001c1.809,0,3.33-1.291,3.616-3.07c0.156-0.96-0.072-1.924-0.643-2.715   c-0.575-0.797-1.428-1.322-2.401-1.479c-1.381-0.223-2.667,0.351-3.458,1.353c-0.607-1.014-1.258-1.979-1.946-2.895   c0.072,0.038,0.148,0.07,0.226,0.07c0.16,0,0.316-0.076,0.414-0.218c0.155-0.229,0.097-0.539-0.131-0.695   c-0.062-0.042-0.943-0.638-2.15-1.163c-2.719-3.025-5.955-5.294-9.642-6.526c18.893,1.224,34.28,15.829,36.293,34.942   C91.168,67.049,75.549,86.338,54.094,88.596z"/><path id="path2" d="M81.567,42.895l1.9-2.938c0.033-0.16,0.078-0.314,0.094-0.479c0.041-0.465-0.012-0.913-0.102-1.348l-3.58,5.531   C80.497,43.512,81.065,43.251,81.567,42.895z"/><path id="path3" d="M78.274,43.801c0.059,0.005,0.115-0.005,0.174-0.002l4.533-7.006c-0.174-0.313-0.389-0.603-0.629-0.87l-4.975,7.691   C77.667,43.702,77.962,43.774,78.274,43.801z"/><path id="path4" d="M80.612,34.699l-7.824,12.094c0.502-0.055,0.986-0.181,1.434-0.374l7.27-11.238C81.218,34.991,80.923,34.832,80.612,34.699   z"/><path id="path5" d="M80.019,64.873l3.775-5.836c0.111-0.598,0.199-1.209,0.254-1.846c0.014-0.125,0.02-0.27,0.02-0.42l-4.891,7.562   C79.486,64.473,79.769,64.652,80.019,64.873z"/><path id="path6" d="M75.565,69.914l-5.01,7.746c0.787-0.557,1.572-1.146,2.328-1.76l3.522-5.443C76.098,70.316,75.815,70.137,75.565,69.914z"/><path id="path7" d="M74.441,67.736l-8.101,12.521c0.604-0.312,1.232-0.666,1.875-1.059l6.607-10.213   C74.618,68.605,74.486,68.182,74.441,67.736z"/><path id="path8" d="M83.317,54.014l-6.588,10.184c0.406-0.135,0.845-0.191,1.297-0.16l5.828-9.01C83.735,54.629,83.562,54.271,83.317,54.014z"/><path id="path9" d="M80.188,56.777l2.031-3.141c-0.141,0.02-0.283,0.051-0.441,0.109C80.8,54.111,80.622,55.268,80.188,56.777z"/><path id="path10" d="M77.452,59.166L67.274,74.898l-0.896,1.385l-3.424,5.295c0.115-0.02,0.23-0.039,0.361-0.072   c0.344-0.09,0.723-0.225,1.119-0.377l13.633-21.072C77.905,59.738,77.702,59.439,77.452,59.166z"/><path id="path11" d="M76.593,58.418c-0.271-0.195-0.553-0.371-0.85-0.525L65.222,74.154c0.273,0.189,0.568,0.348,0.887,0.469L76.593,58.418z"/><path id="path12" d="M63.423,78.08c-0.609,0.293-1.104,0.691-1.465,1.121c-0.205,0.24-0.365,0.49-0.477,0.734   c-0.293,0.639-0.248,1.23,0.209,1.518l2.4-3.711C63.876,77.854,63.659,77.967,63.423,78.08z"/><path id="path13" d="M80.948,66.225c0.636-1.088,1.214-2.178,1.68-3.309l-1.864,2.883C80.837,65.936,80.894,66.078,80.948,66.225z"/><path id="path14" d="M76.173,72.895c0.676-0.709,1.281-1.414,1.766-2.092c0.013-0.018,0.024-0.035,0.037-0.053   c-0.139,0.008-0.277,0.016-0.419,0.006L76.173,72.895z"/><path id="path15" d="M68.973,66.279L68.08,67.66C68.54,67.346,68.869,66.859,68.973,66.279z"/><path id="path16" d="M75.244,26.84c-0.186-0.204-0.501-0.219-0.706-0.034c-0.204,0.185-0.22,0.501-0.034,0.706   c0.762,0.84,2.822,3.303,3.197,4.582c0.063,0.219,0.263,0.36,0.479,0.36c0.046,0,0.094-0.007,0.141-0.021   c0.265-0.077,0.417-0.354,0.339-0.619C78.146,30.053,75.362,26.971,75.244,26.84z"/></g><text id="text16" font-family="'Helvetica Neue', Helvetica, Arial-Unicode, Arial, Sans-serif" font-weight="bold" font-size="5px" fill="#000000" y="115" x="0">Created by mungang kim</text><text id="text17" font-family="'Helvetica Neue', Helvetica, Arial-Unicode, Arial, Sans-serif" font-weight="bold" font-size="5px" fill="#000000" y="120" x="0">from the Noun Project</text><path id="path17" d="m 52.762843,87.981683 c 2.327407,-1.254297 5.321542,-3.836332 7.340507,-6.330188 0.82812,-1.022908 1.036853,-1.1897 1.08592,-0.867725 0.03341,0.219224 0.170263,0.489482 0.304119,0.600572 0.182619,0.151561 0.548751,-0.266548 1.466628,-1.674832 0.672789,-1.032249 1.183333,-1.916736 1.134543,-1.965525 -0.04879,-0.04879 -0.361401,0.0523 -0.694691,0.224655 -0.33329,0.172351 -0.605982,0.266472 -0.605982,0.209156 0,-0.05732 0.504281,-0.946462 1.120623,-1.975876 1.115763,-1.863546 1.167944,-1.904649 2.014173,-1.586522 0.216588,0.08142 1.676931,-2.035853 5.552099,-8.049701 4.82393,-7.486224 5.229426,-8.181234 4.909655,-8.415056 -0.191709,-0.140181 -0.445243,-0.254873 -0.563411,-0.254873 -0.118168,0 -2.322606,3.259706 -4.898752,7.243789 -2.576146,3.984085 -4.709818,7.217874 -4.741492,7.186201 -0.133798,-0.133799 1.938879,-4.528907 2.386827,-5.061262 0.269429,-0.320197 0.489871,-0.65864 0.489871,-0.752094 0,-0.09345 1.292902,-2.166475 2.873117,-4.606712 2.270337,-3.505954 2.814978,-4.473598 2.596003,-4.612208 -0.536483,-0.339593 -0.962645,-0.173986 -1.423838,0.553305 -2.132704,3.363215 -3.283943,4.981548 -3.170799,4.457288 0.338045,-1.566359 0.571899,-2.121683 1.477946,-3.509608 0.53806,-0.824226 0.978292,-1.581828 0.978292,-1.68356 0,-0.101732 -0.264499,-0.132067 -0.587775,-0.06741 -0.323276,0.06466 -0.587368,0.04041 -0.586871,-0.05388 4.96e-4,-0.09429 0.169383,-1.317594 0.375304,-2.718456 0.205921,-1.400862 0.438086,-3.88808 0.515921,-5.527151 l 0.141516,-2.980128 3.68643,-5.699196 c 2.608478,-4.03269 3.60733,-5.729548 3.415921,-5.802998 -0.8496,-0.326023 -1.128605,-0.0094 -4.202598,4.768509 -2.97297,4.620936 -3.053264,4.723897 -3.11092,3.989201 -0.05304,-0.675812 0.195178,-1.147696 2.389137,-4.542052 1.346578,-2.083338 2.415267,-3.820944 2.374865,-3.861346 -0.215488,-0.21549 -1.252935,0.681403 -1.35009,1.167181 -0.173936,0.869681 -1.026526,2.002674 -1.942933,2.581928 -0.462396,0.292278 -0.999843,0.800789 -1.194328,1.130025 -0.194485,0.329236 -0.392145,0.560075 -0.439246,0.512974 -0.252815,-0.252817 -0.56103,-3.258289 -0.40622,-3.961158 0.184965,-0.83978 0.04321,-4.12779 -0.219487,-5.090836 -0.122116,-0.447676 -0.273718,-0.587774 -0.636045,-0.587774 -0.35719,0 -0.492764,0.120889 -0.544139,0.485203 -0.05046,0.357824 -0.210822,0.07492 -0.610833,-1.077585 l -0.542411,-1.562791 0.759914,-0.233086 c 1.78121,-0.546346 2.714888,-1.814456 2.714888,-3.687334 0,-1.217407 -0.280849,-1.895949 -1.109076,-2.679576 -1.19742,-1.132939 -3.154047,-1.297158 -4.591764,-0.385385 l -0.879436,0.557722 -0.80272,-1.209081 c -0.712613,-1.073358 -0.766653,-1.232663 -0.481414,-1.419167 0.481612,-0.314902 0.09226,-0.827969 -1.163173,-1.532763 -0.584398,-0.328078 -1.583311,-1.105008 -2.219804,-1.726509 -1.914349,-1.869256 -4.392788,-3.608358 -6.59709,-4.629127 l -0.866338,-0.401184 1.077586,0.106562 c 1.946709,0.192508 5.152637,0.906629 7.456536,1.660944 13.338889,4.367259 23.276771,15.605293 26.035014,29.441121 1.330062,6.671822 0.930286,13.267954 -1.196272,19.73796 -3.681607,11.201201 -12.369963,20.265228 -23.380701,24.391644 -3.396548,1.272902 -9.004986,2.463462 -11.520615,2.4456 -0.588063,-0.0042 -0.550567,-0.04549 0.607909,-0.669825 z m 11.167645,-6.590725 c 0.518751,-0.180837 1.594286,-1.737167 7.376416,-10.673877 3.723014,-5.754195 6.766311,-10.574191 6.762884,-10.711099 -0.0074,-0.295073 -0.541496,-1.040947 -0.659059,-0.920363 -0.04486,0.04601 -2.278627,3.478057 -4.963926,7.626763 -2.685299,4.148707 -5.952492,9.196219 -7.26043,11.216693 -1.307937,2.020474 -2.262219,3.67359 -2.120626,3.67359 0.141593,0 0.530726,-0.09527 0.864741,-0.211707 z m 3.328493,-1.530768 c 0.399802,-0.204052 0.873335,-0.534675 1.052297,-0.734718 0.178961,-0.200045 1.735516,-2.546287 3.459012,-5.213875 3.094688,-4.789887 3.130991,-4.858754 2.921344,-5.541846 -0.17008,-0.554175 -0.259775,-0.641612 -0.45115,-0.43981 -0.24647,0.259896 -7.359205,11.227726 -7.727206,11.915343 -0.256184,0.478683 -0.166502,0.480476 0.745703,0.01491 z m 4.602616,-3.034238 c 0.834236,-0.60549 1.418846,-1.335015 2.871824,-3.583703 1.003395,-1.552896 1.791254,-2.851955 1.750797,-2.886796 -0.191908,-0.165267 -0.99452,-0.532528 -1.03843,-0.475167 -0.02731,0.03567 -1.016838,1.56368 -2.19896,3.395576 -1.182122,1.831897 -2.317522,3.586902 -2.523111,3.900014 -0.462685,0.704665 -0.20662,0.625919 1.13788,-0.349924 z m 6.212261,-6.048131 c 0.0012,-0.08082 -0.127379,-0.146943 -0.285706,-0.146943 -0.262347,0 -1.682819,1.969751 -1.662899,2.305921 0.0108,0.182247 1.945701,-1.961546 1.948605,-2.158978 z m 3.947457,-6.285707 c 0.865707,-1.697128 0.572229,-1.782749 -0.461158,-0.13454 -0.499085,0.796019 -0.851335,1.566681 -0.78961,1.727534 0.143223,0.373229 0.44172,-0.0069 1.250768,-1.592994 z m -0.04723,-2.420474 c 1.012473,-1.581056 1.914073,-3.189463 2.003556,-3.57424 0.224357,-0.964741 0.218088,-1.902328 -0.01117,-1.669422 -0.100764,0.102371 -1.245156,1.817202 -2.543093,3.810737 -2.351311,3.611442 -2.358396,3.625854 -1.950257,3.967476 0.225294,0.188578 0.465984,0.342244 0.534863,0.341481 0.06888,-7.64e-4 0.953624,-1.294978 1.966097,-2.876032 z m -1.405613,-1.728121 c 3.559475,-5.475075 3.438548,-5.251293 3.163695,-5.85453 -0.128235,-0.281444 -0.297463,-0.511716 -0.376062,-0.511716 -0.147874,0 -6.342894,9.470386 -6.552741,10.017239 -0.09908,0.258194 5.98e-4,0.288928 0.61377,0.189262 0.701675,-0.114056 0.832468,-0.273443 3.151338,-3.840255 z m 0.741136,-5.104277 c 0.50768,-0.814538 0.869336,-1.534695 0.803683,-1.600347 -0.212966,-0.212966 -1.048669,0.367459 -1.293953,0.898695 -0.399816,0.865927 -0.755292,2.182629 -0.589254,2.182629 0.08606,0 0.571846,-0.66644 1.079524,-1.480977 z m -7.202947,-8.691305 c 0.214659,-0.11239 7.21857,-10.762379 7.428468,-11.295562 0.07168,-0.182075 -0.88674,-0.78119 -1.007839,-0.630008 -0.317962,0.396953 -7.562276,11.725985 -7.658518,11.976791 -0.113566,0.295948 -0.05254,0.325717 0.431289,0.210374 0.309964,-0.0739 0.672937,-0.191613 0.8066,-0.261595 z m 6.784285,-6.299604 c 1.145755,-1.785829 2.08319,-3.384066 2.08319,-3.551636 0,-0.167571 -0.136673,-0.418102 -0.303721,-0.556738 -0.248955,-0.206617 -0.348848,-0.20211 -0.554,0.02499 -0.33559,0.371495 -4.824097,7.332128 -4.824097,7.481058 0,0.215206 1.074535,0.25884 1.296512,0.05265 0.12041,-0.111848 1.156362,-1.664493 2.302116,-3.450324 z m -0.06918,3.147574 c 0.532569,-0.271695 1.065612,-0.831965 1.724234,-1.812304 0.991993,-1.476548 1.250083,-2.254359 1.023449,-3.084387 -0.119873,-0.43902 -0.312216,-0.216622 -1.854904,2.144746 -2.263437,3.464608 -2.258225,3.448546 -0.892779,2.751945 z M 78.549567,32.315862 c 0.269009,-0.269009 0.272398,-0.385104 0.02831,-0.969302 -0.380807,-0.911399 -1.652306,-2.753396 -2.697588,-3.907946 -0.616593,-0.68105 -0.964367,-0.923021 -1.197843,-0.833428 -0.578358,0.221937 -0.358156,0.831791 0.824087,2.282309 0.634193,0.778106 1.398711,1.870442 1.698925,2.427415 0.452468,0.839438 0.796069,1.285774 1.003514,1.303564 0.01924,0.0016 0.172512,-0.134526 0.3406,-0.302612 z" style="fill:#ffffff;stroke-width:0.195925"/><path id="path18" d="m 67.442678,24.946463 c -0.75121,-1.584628 -0.888847,-2.028147 -0.700006,-2.255686 0.411227,-0.495499 1.295858,-0.845166 2.138203,-0.845166 0.687202,0 0.936916,0.120437 1.577128,0.760649 0.651797,0.651797 0.760544,0.883108 0.759917,1.61638 -9.36e-4,1.093745 -0.587537,2.06758 -1.466701,2.434918 -1.191089,0.497669 -1.299571,0.417262 -2.308541,-1.711095 z" style="fill:#ffffff;stroke-width:0.195925"/></svg>